<svg width="17" height="17" viewBox="0 0 17 17" fill="none" xmlns="http://www.w3.org/2000/svg">
<path d="M13.3835 6.8125C13.3835 6.8125 13.0215 11.3025 12.8115 13.1938C12.7115 14.0972 12.1535 14.6265 11.2395 14.6432C9.50019 14.6745 7.75885 14.6765 6.02018 14.6398C5.14085 14.6218 4.59218 14.0858 4.49418 13.1985C4.28285 11.2905 3.92285 6.8125 3.92285 6.8125" stroke="#FF3B30" stroke-width="1.5" stroke-linecap="round" stroke-linejoin="round"/>
<path d="M14.3053 4.65951H3" stroke="#FF3B30" stroke-width="1.5" stroke-linecap="round" stroke-linejoin="round"/>
<path d="M12.1274 4.65998C11.604 4.65998 11.1534 4.28998 11.0507 3.77732L10.8887 2.96665C10.7887 2.59265 10.45 2.33398 10.064 2.33398H7.24204C6.85604 2.33398 6.51738 2.59265 6.41738 2.96665L6.25538 3.77732C6.15271 4.28998 5.70204 4.65998 5.17871 4.65998" stroke="#FF3B30" stroke-width="1.5" stroke-linecap="round" stroke-linejoin="round"/>
</svg>
