<svg width="28" height="21" viewBox="0 0 28 21" fill="none" xmlns="http://www.w3.org/2000/svg">
<path d="M12.4604 3.01597H9.73467V0.407986C9.73467 0.291847 9.64058 0.197754 9.52444 0.197754H2.16629C2.05022 0.197754 1.95605 0.291847 1.95605 0.407986V4.29726C1.95605 4.41333 2.05015 4.50749 2.16629 4.50749H9.83975H11.6718L12.6223 3.36036C12.7358 3.22328 12.6384 3.01597 12.4604 3.01597Z" fill="url(#paint0_linear_9963_23052)"/>
<path d="M14.906 1.7927L12.0468 5.24342H0.721537C0.362757 5.24342 0.0762347 5.54233 0.0913954 5.90076L0.668752 19.5658C0.683009 19.9035 0.960909 20.1699 1.2989 20.1699H26.3705C26.7077 20.1699 26.9853 19.9046 27.0006 19.5677L27.7845 2.2236C27.8007 1.86447 27.5139 1.56445 27.1544 1.56445H15.3917C15.2039 1.56438 15.0259 1.64805 14.906 1.7927Z" fill="url(#paint1_linear_9963_23052)"/>
<defs>
<linearGradient id="paint0_linear_9963_23052" x1="7.31352" y1="2.35259" x2="7.31352" y2="7.69867" gradientUnits="userSpaceOnUse">
<stop stop-color="#FFD483"/>
<stop offset="1" stop-color="#CFA045"/>
</linearGradient>
<linearGradient id="paint1_linear_9963_23052" x1="13.938" y1="8.13411" x2="13.938" y2="19.2258" gradientUnits="userSpaceOnUse">
<stop stop-color="#FFD483"/>
<stop offset="1" stop-color="#CFA045"/>
</linearGradient>
</defs>
</svg>
