<svg width="17" height="17" viewBox="0 0 17 17" fill="none" xmlns="http://www.w3.org/2000/svg">
<path d="M4.19332 13.5137C3.78666 13.5137 3.40666 13.3737 3.13332 13.1137C2.78666 12.787 2.61999 12.2937 2.67999 11.7604L2.92666 9.60036C2.97332 9.19369 3.21999 8.65369 3.50666 8.36036L8.97999 2.56702C10.3467 1.12036 11.7733 1.08036 13.22 2.44703C14.6667 3.81369 14.7067 5.24036 13.34 6.68703L7.86666 12.4804C7.58666 12.7804 7.06666 13.0604 6.65999 13.127L4.51332 13.4937C4.39999 13.5004 4.29999 13.5137 4.19332 13.5137ZM11.12 2.44036C10.6067 2.44036 10.16 2.76036 9.70666 3.24036L4.23332 9.04036C4.09999 9.18036 3.94666 9.51369 3.91999 9.70703L3.67332 11.867C3.64666 12.087 3.69999 12.267 3.81999 12.3804C3.93999 12.4937 4.11999 12.5337 4.33999 12.5004L6.48666 12.1337C6.67999 12.1004 6.99999 11.927 7.13332 11.787L12.6067 5.99369C13.4333 5.11369 13.7333 4.30036 12.5267 3.16702C11.9933 2.65369 11.5333 2.44036 11.12 2.44036Z" fill="#1C4587"/>
<path d="M12.06 7.79925C12.0466 7.79925 12.0266 7.79925 12.0133 7.79925C9.9333 7.59258 8.25996 6.01258 7.93996 3.94592C7.89996 3.67258 8.08663 3.41925 8.35996 3.37258C8.6333 3.33258 8.88663 3.51925 8.9333 3.79258C9.18663 5.40592 10.4933 6.64592 12.12 6.80591C12.3933 6.83258 12.5933 7.07925 12.5666 7.35258C12.5333 7.60591 12.3133 7.79925 12.06 7.79925Z" fill="#1C4587"/>
<path d="M14.5 15.666H2.5C2.22667 15.666 2 15.4393 2 15.166C2 14.8927 2.22667 14.666 2.5 14.666H14.5C14.7733 14.666 15 14.8927 15 15.166C15 15.4393 14.7733 15.666 14.5 15.666Z" fill="#1C4587"/>
</svg>
