<svg width="690" height="238" viewBox="0 0 690 238" fill="none" xmlns="http://www.w3.org/2000/svg">
<mask id="mask0_10188_13609" style="mask-type:alpha" maskUnits="userSpaceOnUse" x="0" y="-15" width="690" height="281">
<rect y="-15" width="690" height="281" fill="#D9D9D9"/>
</mask>
<g mask="url(#mask0_10188_13609)">
<rect width="690" height="422" transform="translate(0 -100)" fill="white"/>
<path d="M604.798 89.7216C604.798 89.7216 562.327 17.7888 476.867 1.14896C391.407 -15.4909 349.114 24.8923 291.936 35.3679C234.758 45.8435 205.591 -13.948 138.283 32.6429C70.9752 79.2346 48.0206 196.173 110.984 229.632C173.948 263.09 237.205 264.472 319.664 254.991C402.124 245.51 446.861 268.13 505.385 268.383C563.91 268.635 647.079 191.522 604.798 89.7216Z" fill="#80A7E5"/>
<path opacity="0.7" d="M604.798 89.7216C604.798 89.7216 562.327 17.7888 476.867 1.14896C391.407 -15.4909 349.114 24.8923 291.936 35.3679C234.758 45.8435 205.591 -13.948 138.283 32.6429C70.9752 79.2346 48.0206 196.173 110.984 229.632C173.948 263.09 237.205 264.472 319.664 254.991C402.124 245.51 446.861 268.13 505.385 268.383C563.91 268.635 647.079 191.522 604.798 89.7216Z" fill="white"/>
<path d="M650.443 178.802V166.055L639.402 164.849C638.679 161.751 637.447 158.828 635.794 156.152L642.558 148.27L632.733 139.256L624.453 145.236C621.482 143.513 618.2 142.203 614.697 141.398L613.45 131.795H599.555L598.309 141.398C594.852 142.192 591.609 143.478 588.669 145.167L580.168 139.027L570.343 148.041L577.249 156.09C575.644 158.676 574.435 161.494 573.696 164.477L562.21 165.732V178.478L574.133 179.781C574.967 182.476 576.179 185.024 577.731 187.365L570.095 196.264L579.92 205.278L589.801 198.142C592.256 199.433 594.904 200.449 597.698 201.142L599.203 212.739H613.098L614.58 201.315C617.439 200.669 620.155 199.691 622.674 198.421L632.484 205.506L642.309 196.492L634.916 187.876C636.576 185.479 637.886 182.86 638.78 180.075L650.443 178.802ZM606.503 188.952C595.903 188.952 587.31 181.069 587.31 171.344C587.31 161.62 595.903 153.737 606.503 153.737C617.104 153.737 625.696 161.62 625.696 171.344C625.696 181.069 617.104 188.952 606.503 188.952Z" stroke="#263238" stroke-miterlimit="10" stroke-linejoin="round"/>
<path d="M640.264 84.1379V77.4779L634.496 76.8474C634.118 75.2286 633.475 73.7018 632.611 72.3033L636.144 68.1846L631.011 63.4751L626.685 66.5996C625.132 65.699 623.417 65.0145 621.587 64.5942L620.936 59.5767H613.676L613.025 64.5942C611.219 65.0086 609.524 65.6805 607.988 66.5633L603.546 63.3552L598.413 68.0648L602.021 72.2696C601.182 73.6208 600.551 75.0927 600.164 76.6516L594.163 77.3074V83.9674L600.392 84.6477C600.828 86.0555 601.461 87.3873 602.272 88.6103L598.282 93.2599L603.416 97.9694L608.579 94.2406C609.862 94.9149 611.245 95.4458 612.705 95.8079L613.491 101.867H620.751L621.526 95.8982C623.02 95.5606 624.438 95.0491 625.755 94.3866L630.88 98.0884L636.014 93.3788L632.151 88.8778C633.018 87.6253 633.703 86.2572 634.17 84.8013L640.264 84.1379ZM617.306 89.4416C611.767 89.4416 607.278 85.3229 607.278 80.242C607.278 75.1611 611.767 71.0416 617.306 71.0416C622.844 71.0416 627.335 75.1603 627.335 80.242C627.335 85.322 622.845 89.4416 617.306 89.4416Z" stroke="#263238" stroke-miterlimit="10" stroke-linejoin="round"/>
<path d="M494.991 187.934V182.093L489.932 181.541C489.601 180.121 489.036 178.782 488.279 177.556L491.378 173.945L486.877 169.815L483.082 172.555C481.721 171.765 480.217 171.164 478.611 170.796L478.04 166.395H471.674L471.102 170.796C469.518 171.159 468.032 171.749 466.685 172.522L462.79 169.709L458.288 173.84L461.453 177.527C460.717 178.712 460.163 180.004 459.825 181.371L454.562 181.946V187.786L460.025 188.383C460.406 189.618 460.962 190.786 461.673 191.858L458.174 195.935L462.676 200.065L467.203 196.795C468.328 197.387 469.542 197.853 470.823 198.17L471.513 203.484H477.879L478.558 198.249C479.868 197.953 481.113 197.505 482.266 196.923L486.762 200.169L491.263 196.04L487.876 192.092C488.636 190.994 489.237 189.794 489.647 188.518L494.991 187.934ZM474.857 192.585C470 192.585 466.062 188.973 466.062 184.517C466.062 180.062 470 176.45 474.857 176.45C479.714 176.45 483.651 180.062 483.651 184.517C483.651 188.973 479.714 192.585 474.857 192.585Z" stroke="#263238" stroke-miterlimit="10" stroke-linejoin="round"/>
<path d="M52.8843 69.9301C58.3445 70.0947 69.6163 65.7042 69.6255 65.7008C69.7424 65.6553 64.215 59.7633 63.8203 59.4282C59.2461 55.5492 47.9209 50.5249 41.8443 53.6662C37.4669 55.9298 36.7383 61.1179 39.5167 64.7319C42.3549 68.4244 48.2346 69.7883 52.8843 69.9301Z" fill="#2C6CD3"/>
<path d="M69.9299 98.7215C75.034 97.604 84.0133 91.1955 84.7253 90.6824C88.5912 95.3101 92.9667 99.7714 97.666 104.062C100.349 106.518 103.135 108.914 105.963 111.286C104.497 110.381 103.178 109.58 102.981 109.486C97.4508 106.854 85.0814 104.752 80.1272 109.255C76.5548 112.498 77.346 117.677 81.0665 120.491C84.8652 123.365 90.9317 123.256 95.4562 122.265C100.049 121.26 107.823 115.937 109.861 114.503C110.955 115.402 112.037 116.311 113.137 117.205C118.407 121.501 123.686 125.767 128.725 130.097C130.502 131.621 132.19 133.184 133.886 134.741C132.582 133.937 131.478 133.271 131.297 133.185C125.768 130.554 113.399 128.45 108.443 132.952C104.872 136.197 105.662 141.376 109.382 144.189C113.184 147.062 119.247 146.954 123.773 145.963C128.156 145.004 135.38 140.15 137.808 138.457C139.492 140.099 141.182 141.742 142.733 143.403C143.764 144.559 144.845 145.607 145.809 146.821C146.793 148.004 147.765 149.177 148.729 150.338C150.495 152.635 152.334 154.995 153.996 157.277C155.165 158.855 156.248 160.379 157.343 161.911C155.594 160.374 152.101 157.431 151.778 157.215C146.749 153.845 134.869 150.048 129.226 153.809C125.161 156.52 125.087 161.75 128.3 165.046C131.582 168.414 137.594 169.151 142.23 168.8C147.335 168.413 156.904 163.567 158.095 162.954C159.898 165.495 161.625 167.983 163.213 170.354C164.643 172.477 165.969 174.499 167.222 176.44L171.281 174.957C169.861 172.854 168.348 170.651 166.707 168.329C164.888 165.741 162.888 163.011 160.805 160.223C161.442 159.67 165.048 156.506 168.007 153.163C172.755 155.247 182.927 155.998 184.241 156.087C184.218 159.118 184.162 162.067 184.06 164.849C183.995 166.765 183.916 168.603 183.827 170.375L188.128 168.803C188.155 167.54 188.179 166.259 188.193 164.927C188.232 161.849 188.207 158.558 188.145 155.18C189.465 154.969 200.246 153.183 204.477 150.523C208.313 148.109 212.47 144.055 212.697 139.542C212.921 135.124 209.263 131.112 204.243 131.365C197.28 131.715 190.681 141.541 189.099 147.068C189.005 147.393 188.424 151.035 188.098 153.338C188.065 151.958 188.05 150.617 187.996 149.196C187.914 146.386 187.74 143.585 187.564 140.57C187.424 139.117 187.282 137.649 187.14 136.166C187.031 134.694 186.714 133.15 186.507 131.627C185.946 128.103 185.189 124.559 184.342 121.004C187.024 120.93 196.542 120.544 200.753 118.682C204.944 116.829 209.721 113.401 210.691 108.972C211.641 104.635 208.688 100.161 203.687 99.7132C196.745 99.0929 188.6 107.888 186.123 113.132C185.968 113.458 184.653 117.404 183.976 119.583C183.448 117.45 182.933 115.318 182.322 113.175C180.561 106.989 178.568 100.778 176.61 94.5732C176.01 92.6734 175.435 90.7727 174.854 88.8729C175.809 88.856 187.133 88.6222 191.849 86.5367C196.04 84.6849 200.818 81.2558 201.787 76.8264C202.737 72.4908 199.785 68.0159 194.783 67.5686C187.841 66.9474 179.696 75.7428 177.22 80.9857C177.034 81.3807 175.149 87.0608 174.747 88.5268C173.467 84.3414 172.233 80.1602 171.199 75.9926C169.763 70.2449 168.702 64.5319 168.12 58.9277C168.564 58.9218 180.385 58.7252 185.215 56.5907C189.406 54.7373 194.184 51.3081 195.154 46.8796C196.103 42.544 193.152 38.0691 188.15 37.6218C181.207 37.0006 173.064 45.7959 170.586 51.0389C170.393 51.4499 168.369 57.5621 168.087 58.694C168.054 58.3606 167.979 58.0187 167.95 57.6854C167.411 51.6955 167.709 45.8306 168.282 40.3521C168.607 37.1677 169.113 34.1411 169.676 31.2066C171.882 31.377 181.972 32.0548 186.55 30.5744C190.937 29.1548 196.097 26.2278 197.59 21.9243C199.054 17.7093 196.654 12.9652 191.738 12.0165C184.911 10.6999 175.764 18.6217 172.675 23.5836C172.507 23.8528 171.131 26.7697 170.161 28.9067C170.437 27.585 170.696 26.2177 170.988 24.9576C172.073 20.2219 173.385 15.947 174.58 12.1693C175.278 10.0272 175.955 8.10122 176.611 6.30603C178.87 5.4384 187.929 1.83368 191.189 -1.35749C194.368 -4.47185 197.479 -9.25057 196.642 -13.7027C195.823 -18.0619 191.31 -21.259 186.47 -20.0217C179.75 -18.305 175.609 -7.40728 175.36 -1.69762C175.34 -1.20388 175.969 6.54826 176.087 6.50437C176.087 6.50437 176.196 6.46301 176.224 6.45289C175.555 8.16874 174.861 10.0146 174.147 12.0469C172.859 15.8086 171.442 20.0683 170.241 24.8006C169.027 29.5278 167.853 34.694 167.151 40.2382C166.44 45.7943 166.002 51.6727 166.403 57.7824C166.407 57.8508 166.422 57.9225 166.426 57.9917C165.704 56.2379 163.505 51.3959 163.29 51.0431C160.261 46.05 151.21 38.0345 144.367 39.282C139.439 40.1817 136.983 44.9005 138.394 49.1306C139.838 53.4493 144.96 56.4278 149.33 57.8922C154.259 59.543 165.602 58.7412 166.504 58.6762C166.944 64.4914 167.913 70.4264 169.25 76.3833C170.012 79.7906 170.895 83.1995 171.827 86.6076C171.149 85.1095 170.531 83.7743 170.422 83.597C167.393 78.6031 158.343 70.5901 151.5 71.8367C146.57 72.7347 144.115 77.4552 145.527 81.6845C146.969 86.0041 152.091 88.9826 156.461 90.4469C160.896 91.9315 170.582 91.4277 173.143 91.2622C173.515 92.5662 173.871 93.8727 174.25 95.175C176.062 101.426 177.901 107.654 179.499 113.816C180.065 115.987 180.533 118.144 181.011 120.3C180.407 118.971 179.886 117.856 179.789 117.694C176.758 112.7 167.708 104.686 160.867 105.933C155.938 106.832 153.481 111.552 154.893 115.782C156.334 120.1 161.459 123.079 165.829 124.543C170.059 125.961 179.005 125.568 182.049 125.385C182.466 127.607 182.887 129.832 183.183 132.004C183.347 133.49 183.618 134.911 183.693 136.412C183.801 137.896 183.909 139.367 184.015 140.822C184.106 143.632 184.221 146.532 184.236 149.275C184.263 151.184 184.247 153.003 184.241 154.834C183.705 152.667 182.562 148.445 182.424 148.102C180.982 144.544 177.128 139.309 172.662 136.271C172.452 135.744 172.194 135.237 171.881 134.754C169.409 130.956 163.946 129.461 159.912 132.211C154.314 136.028 154.72 147.564 156.725 152.973C156.842 153.293 158.547 156.623 159.66 158.71C158.801 157.575 157.984 156.465 157.085 155.307C155.325 153.006 153.495 150.757 151.538 148.33C150.548 147.189 149.546 146.038 148.535 144.873C147.56 143.7 146.366 142.574 145.277 141.408C142.69 138.754 139.927 136.179 137.082 133.642C139.276 132.223 146.982 127.084 149.374 123.401C151.756 119.735 153.677 114.456 151.825 110.272C150.009 106.175 144.857 103.937 140.416 106.095C134.252 109.09 132.747 120.548 133.834 126.175C133.902 126.526 135.177 130.482 135.923 132.644C134.2 131.132 132.488 129.614 130.69 128.135C125.502 123.866 120.106 119.693 114.741 115.51C113.098 114.229 111.477 112.935 109.849 111.646C110.635 111.148 119.94 105.22 122.619 101.096C125 97.4302 126.923 92.1518 125.069 87.9664C123.254 83.8696 118.101 81.6305 113.66 83.7894C107.496 86.7848 105.991 98.2421 107.079 103.869C107.161 104.293 109.005 109.983 109.551 111.409C105.967 108.568 102.423 105.705 99.0543 102.752C94.401 98.6835 90.0807 94.4568 86.2249 90.0773C86.592 89.846 96.333 83.6991 99.0783 79.4749C101.46 75.8086 103.382 70.5311 101.527 66.3465C99.7121 62.2489 94.5601 60.0114 90.1184 62.1695C83.9544 65.1641 82.4502 76.6222 83.5376 82.2483C83.6232 82.6906 85.6104 88.8121 86.0575 89.8966C85.8284 89.6367 85.5598 89.3894 85.3353 89.1278C81.2836 84.4022 78.0056 79.361 75.1886 74.5012C73.5455 71.6814 72.148 68.9013 70.8536 66.1684C72.7957 65.1944 81.6185 60.6529 84.5459 57.1013C87.3529 53.6958 89.8957 48.6444 88.5534 44.2987C87.2388 40.0424 82.3848 37.2986 77.714 38.9967C71.2289 41.3523 68.3613 52.5901 68.7689 58.2914C68.7909 58.602 69.3963 61.7315 69.8728 64.0044C69.3098 62.7629 68.7017 61.491 68.1874 60.2916C66.2453 55.7931 64.7678 51.563 63.4936 47.808C62.787 45.666 62.1954 43.7172 61.6637 41.8891C63.0253 40.0205 68.4128 32.4295 69.2123 28.1184C69.9925 23.911 69.7119 18.3524 66.3382 15.0625C63.0336 11.841 57.348 11.4587 54.0544 14.9385C49.482 19.7721 52.5824 30.9567 55.807 35.846C56.0866 36.2672 61.2736 42.414 61.3463 42.3187C61.3463 42.3187 61.4125 42.2275 61.4282 42.2056C61.902 43.9746 62.4346 45.8668 63.0602 47.9228C64.247 51.7115 65.628 55.9822 67.4716 60.5373C69.3015 65.094 71.4286 69.9976 74.1775 74.9764C76.9256 79.9695 80.094 85.096 84.1034 89.9878C84.1485 90.0426 84.2046 90.0958 84.2497 90.1507C82.5918 89.0535 77.8456 86.129 77.4537 85.9416C71.9254 83.3101 59.556 81.2068 54.5999 85.7087C51.0303 88.953 51.8188 94.1327 55.5402 96.9457C59.3425 99.8204 65.4053 99.7115 69.9299 98.7215Z" fill="#2C6CD3"/>
<path d="M168.934 30.1955C169.06 30.2166 167.993 22.5041 167.865 22.0247C166.381 16.4754 159.956 6.55252 152.998 6.0976C147.986 5.77013 144.259 9.72765 144.405 14.1494C144.551 18.6639 148.635 22.7784 152.429 25.2488C156.883 28.1513 168.926 30.1938 168.934 30.1955Z" fill="#2C6CD3"/>
<path d="M611.704 3.95449C607.089 6.03326 595.566 6.2662 595.556 6.2662C595.437 6.26874 597.695 -0.749125 597.892 -1.17619C600.182 -6.12709 607.781 -14.4582 614.32 -13.9189C619.03 -13.5298 621.844 -9.33682 620.983 -5.25017C620.105 -1.07406 615.634 2.18293 611.704 3.95449Z" fill="#2C6CD3"/>
<path d="M609.219 34.7083C604.367 35.5607 593.961 33.2482 593.133 33.0608C591.767 38.4033 589.894 43.7847 587.67 49.1339C586.404 52.1934 585.023 55.2386 583.598 58.2761C584.473 56.9789 585.267 55.8243 585.397 55.6732C589.032 51.4524 598.759 45.2591 604.909 47.3649C609.342 48.8807 610.847 53.6054 608.841 57.3393C606.794 61.1525 601.542 63.2127 597.242 63.9681C592.878 64.7361 583.963 62.9266 581.609 62.4193C581.049 63.5798 580.505 64.7437 579.939 65.9008C577.227 71.4577 574.497 76.991 571.999 82.4947C571.118 84.4334 570.328 86.3729 569.529 88.3107C570.308 87.1587 570.975 86.1948 571.094 86.0564C574.728 81.8372 584.455 75.6423 590.606 77.7472C595.038 79.2639 596.545 83.9886 594.537 87.7225C592.487 91.5365 587.238 93.5959 582.937 94.3512C578.772 95.0838 570.527 93.4819 567.729 92.8911C566.976 94.8981 566.219 96.9069 565.589 98.8827C565.191 100.241 564.704 101.523 564.391 102.907C564.046 104.272 563.705 105.623 563.368 106.961C562.82 109.558 562.238 112.236 561.774 114.784C561.437 116.553 561.151 118.245 560.857 119.948C561.71 118.009 563.466 114.244 563.652 113.944C566.546 109.267 575.138 101.794 581.567 103.019C586.198 103.903 588.467 108.363 587.099 112.333C585.703 116.386 580.855 119.152 576.73 120.497C572.187 121.976 561.932 121.214 560.651 121.111C560.175 123.931 559.743 126.678 559.38 129.277C559.048 131.605 558.762 133.812 558.506 135.922L554.398 136.09C554.729 133.78 555.099 131.354 555.528 128.778C555.998 125.913 556.562 122.86 557.174 119.729C556.394 119.48 551.966 118.045 548.017 116.227C544.821 119.699 536.41 123.955 535.321 124.496C536.619 127.09 537.91 129.6 539.171 131.951C540.034 133.572 540.877 135.121 541.701 136.609L537.348 136.787C536.793 135.713 536.231 134.623 535.658 133.484C534.327 130.857 532.961 128.023 531.589 125.103C530.366 125.39 520.364 127.684 515.611 126.903C511.302 126.192 506.026 124.189 503.927 120.397C501.873 116.686 503.32 111.944 507.733 110.381C513.857 108.211 523.662 114.3 527.349 118.481C527.567 118.728 529.601 121.646 530.851 123.506C530.297 122.31 529.746 121.155 529.192 119.917C528.078 117.477 527.047 115.011 525.926 112.362C525.433 111.066 524.937 109.756 524.433 108.433C523.905 107.131 523.527 105.695 523.063 104.314C522.058 101.091 521.212 97.7812 520.44 94.4297C518.108 95.3176 509.779 98.3653 505.38 98.2615C501.003 98.1585 495.458 96.9128 492.759 93.4557C490.115 90.0721 490.761 85.1845 494.865 83.0256C500.56 80.0294 511.257 84.6866 515.593 88.3065C515.864 88.531 518.656 91.4504 520.155 93.0802C519.709 91.0622 519.252 89.0501 518.872 86.9949C517.774 81.0625 516.866 75.0253 515.929 69.0068C515.644 67.1626 515.335 65.3294 515.033 63.4921C514.207 63.817 504.391 67.6344 499.465 67.5188C495.087 67.4175 489.541 66.1701 486.843 62.713C484.2 59.3303 484.846 54.4427 488.949 52.2837C494.644 49.2875 505.341 53.9439 509.676 57.5638C510.003 57.8364 514.015 62.0412 514.978 63.157C514.312 59.1108 513.609 55.0858 512.738 51.1426C511.547 45.7014 510.048 40.423 508.185 35.4071C507.802 35.559 497.575 39.5858 492.53 39.4684C488.153 39.3655 482.607 38.1189 479.908 34.6627C477.265 31.2791 477.911 26.3923 482.015 24.2334C487.711 21.2372 498.407 25.8935 502.743 29.5135C503.083 29.7979 507.397 34.3234 508.115 35.1961C508.003 34.8982 507.924 34.5783 507.808 34.2821C505.745 28.9505 503.017 24.0241 500.215 19.5264C498.593 16.91 496.883 14.4919 495.163 12.1735C493.341 13.1027 484.97 17.2653 480.417 17.619C476.054 17.9583 470.393 17.2771 467.296 14.1138C464.263 11.0172 464.32 6.09415 468.139 3.53514C473.442 -0.0172577 484.631 3.53345 489.375 6.69508C489.632 6.86641 492.043 8.88103 493.776 10.3707C492.982 9.33511 492.184 8.2531 491.402 7.27575C488.474 3.59675 485.546 0.394615 482.927 -2.42266C481.424 -4.01275 480.031 -5.42477 478.711 -6.73297C476.407 -6.67558 467.114 -6.55404 462.971 -8.13569C458.929 -9.68021 454.246 -12.6764 453.085 -16.7926C451.95 -20.8244 454.475 -25.1685 459.149 -25.8242C465.639 -26.7358 473.787 -18.8545 476.408 -14.0437C476.634 -13.6276 479.363 -6.75238 479.243 -6.74816C479.243 -6.74816 479.131 -6.74479 479.104 -6.74394C480.401 -5.50917 481.776 -4.17058 483.246 -2.68092C485.937 0.0899315 488.949 3.24227 491.975 6.87653C495.01 10.5015 498.196 14.5181 501.136 19.0259C504.089 23.5413 506.943 28.4298 509.175 33.8153C509.201 33.8761 509.218 33.9428 509.243 34.0035C509.124 32.2421 508.968 27.3073 509.004 26.9283C509.498 21.5697 513.885 11.4797 520.282 10.1217C524.891 9.14436 528.987 12.322 529.56 16.4526C530.142 20.6709 527.004 25.0445 523.87 27.8516C520.337 31.0175 510.267 34.3547 509.465 34.6188C511.54 39.7647 513.211 45.2009 514.575 50.7873C515.358 53.9819 516.037 57.2203 516.674 60.4756C516.624 58.9496 516.591 57.5849 516.61 57.3941C517.104 52.0339 521.49 41.9464 527.888 40.5884C532.496 39.6102 536.594 42.7887 537.165 46.9193C537.749 51.1376 534.609 55.5112 531.478 58.3183C528.299 61.166 519.775 64.1706 517.508 64.9378C517.738 66.1886 517.984 67.4361 518.209 68.6877C519.289 74.6936 520.338 80.6919 521.565 86.5459C521.995 88.6095 522.502 90.6267 523.002 92.6455C522.959 91.2909 522.936 90.149 522.951 89.9751C523.445 84.6149 527.832 74.5265 534.228 73.1685C538.837 72.1912 542.935 75.3688 543.507 79.5002C544.091 83.7168 540.95 88.0921 537.817 90.8984C534.785 93.617 526.944 96.4545 524.255 97.3778C524.834 99.433 525.41 101.491 526.074 103.459C526.559 104.792 526.926 106.107 527.494 107.422C528.027 108.734 528.555 110.034 529.077 111.321C530.184 113.765 531.308 116.293 532.453 118.653C533.235 120.299 534.015 121.855 534.793 123.424C534.339 121.374 533.539 117.346 533.515 117.003C533.251 113.437 534.351 107.578 536.903 103.387C536.861 102.86 536.868 102.335 536.934 101.808C537.454 97.6724 541.51 94.45 546.131 95.3792C552.545 96.668 557.06 106.71 557.621 112.063C557.655 112.378 557.597 115.842 557.521 118.026C557.78 116.748 558.012 115.505 558.296 114.193C558.836 111.594 559.458 109.016 560.115 106.237C560.484 104.907 560.857 103.563 561.234 102.206C561.576 100.853 562.125 99.4633 562.568 98.0758C563.669 94.8804 564.954 91.6909 566.326 88.5048C563.845 88.066 555.066 86.3906 551.46 84.0789C547.87 81.779 543.995 77.9312 543.821 73.6834C543.652 69.5224 547.129 65.7734 551.849 66.0494C558.402 66.4317 564.524 75.7301 565.964 80.9435C566.053 81.2692 566.627 85.1162 566.899 87.2355C567.74 85.3263 568.568 83.4164 569.488 81.5098C572.14 76.0052 575.011 70.5108 577.85 65.0172C578.721 63.3351 579.565 61.6496 580.419 59.965C579.534 59.8164 569.051 58.0331 565.013 55.4445C561.424 53.1438 557.548 49.2977 557.375 45.0481C557.205 40.8889 560.682 37.139 565.403 37.4158C571.955 37.7982 578.077 47.0957 579.516 52.3091C579.624 52.7024 580.442 58.239 580.574 59.6561C582.451 55.9459 584.285 52.2314 585.931 48.5026C588.208 43.361 590.133 38.2008 591.595 33.0743C591.182 33.0059 580.232 31.1888 576.096 28.5378C572.506 26.2371 568.631 22.3909 568.458 18.1414C568.288 13.9813 571.766 10.2331 576.487 10.5091C583.038 10.8914 589.161 20.1898 590.6 25.4032C590.713 25.8125 591.589 31.7712 591.663 32.8599C591.75 32.5552 591.877 32.248 591.959 31.9433C593.443 26.4514 594.13 20.9612 594.498 15.7926C594.719 12.7896 594.745 9.90818 594.704 7.10442C592.626 6.95756 583.14 6.19205 579.131 4.18249C575.287 2.25648 570.975 -1.17607 570.294 -5.38087C569.627 -9.4996 572.636 -13.5761 577.36 -13.777C583.919 -14.0572 591.117 -5.43152 593.171 -0.39537C593.283 -0.121067 594.083 2.77892 594.633 4.8982C594.593 3.63305 594.578 2.32569 594.513 1.11455C594.283 -3.43461 593.767 -7.58878 593.277 -11.2636C592.98 -13.3525 592.666 -15.2346 592.351 -16.9918C590.395 -18.1118 582.572 -22.7141 580.068 -26.1289C577.624 -29.4627 575.521 -34.3309 577.029 -38.3509C578.505 -42.2882 583.223 -44.6345 587.517 -42.8165C593.478 -40.2921 595.534 -29.5944 594.829 -24.2544C594.766 -23.7936 592.907 -16.6778 592.805 -16.7344C592.805 -16.7344 592.709 -16.7892 592.687 -16.8019C593.027 -15.1164 593.368 -13.3035 593.697 -11.3176C594.276 -7.64533 594.892 -3.49116 595.231 1.0715C595.582 5.63079 595.824 10.5935 595.565 15.8415C595.312 21.1013 594.755 26.6236 593.377 32.2447C593.362 32.3079 593.337 32.3729 593.32 32.4362C594.28 30.9061 597.12 26.7131 597.377 26.4135C601.011 22.1935 610.738 15.9993 616.89 18.1034C621.321 19.6209 622.828 24.3448 620.821 28.0795C618.766 31.8944 613.518 33.9529 609.219 34.7083Z" fill="#2C6CD3"/>
<path d="M495.373 11.0425C495.274 11.105 492.937 4.10906 492.845 3.65246C491.779 -1.63605 493.107 -12.43 498.886 -15.2894C503.048 -17.3488 507.915 -15.2751 509.655 -11.4298C511.432 -7.50438 509.664 -2.52393 507.45 0.94153C504.851 5.0113 495.379 11.0375 495.373 11.0425Z" fill="#2C6CD3"/>
<path d="M643.799 228.258C641.99 228.859 637.694 228.516 637.691 228.515C637.647 228.512 638.797 225.986 638.889 225.835C639.96 224.078 643.155 221.264 645.563 221.708C647.297 222.029 648.157 223.692 647.657 225.18C647.145 226.7 645.339 227.745 643.799 228.258Z" fill="#2C6CD3"/>
<path d="M641.512 239.602C639.67 239.738 635.902 238.49 635.603 238.39C634.859 240.326 633.924 242.257 632.86 244.163C632.254 245.253 631.605 246.334 630.94 247.411C631.324 246.961 631.67 246.561 631.725 246.51C633.264 245.076 637.155 243.136 639.349 244.148C640.93 244.877 641.281 246.69 640.369 248.004C639.439 249.346 637.395 249.916 635.762 250.036C634.105 250.159 630.869 249.153 630.017 248.877C629.758 249.288 629.503 249.7 629.242 250.11C627.988 252.075 626.726 254.031 625.554 255.985C625.14 256.673 624.761 257.365 624.379 258.055C624.719 257.656 625.01 257.323 625.06 257.275C626.599 255.841 630.49 253.901 632.684 254.913C634.266 255.642 634.616 257.455 633.705 258.769C632.774 260.111 630.73 260.681 629.097 260.801C627.516 260.919 624.52 260.016 623.506 259.692C623.137 260.41 622.767 261.129 622.445 261.84C622.237 262.33 621.999 262.788 621.821 263.291C621.632 263.786 621.446 264.275 621.261 264.761C620.942 265.706 620.607 266.681 620.321 267.61C620.117 268.256 619.936 268.873 619.751 269.496C620.154 268.807 620.974 267.472 621.056 267.368C622.34 265.736 625.866 263.278 628.203 263.973C629.886 264.475 630.532 266.217 629.848 267.643C629.15 269.099 627.224 269.946 625.63 270.292C623.874 270.673 620.095 270.007 619.623 269.921C619.321 270.952 619.039 271.957 618.789 272.91C618.562 273.764 618.358 274.574 618.169 275.349L616.634 275.258C616.859 274.411 617.104 273.522 617.378 272.581C617.68 271.533 618.025 270.419 618.391 269.277C618.112 269.155 616.529 268.457 615.141 267.634C613.799 268.806 610.482 270.074 610.053 270.236C610.421 271.249 610.79 272.23 611.154 273.152C611.404 273.786 611.649 274.394 611.889 274.978L610.262 274.882C610.103 274.462 609.943 274.035 609.78 273.591C609.401 272.563 609.019 271.459 608.638 270.323C608.171 270.384 604.349 270.864 602.617 270.396C601.046 269.971 599.172 269.03 598.561 267.541C597.962 266.084 598.709 264.375 600.42 263.958C602.794 263.379 606.17 266.009 607.356 267.702C607.426 267.802 608.053 268.963 608.436 269.701C608.283 269.236 608.129 268.786 607.978 268.305C607.671 267.356 607.397 266.401 607.097 265.373C606.971 264.873 606.844 264.367 606.716 263.857C606.577 263.353 606.501 262.804 606.389 262.273C606.158 261.037 605.991 259.775 605.852 258.5C604.945 258.743 601.713 259.566 600.081 259.363C598.458 259.162 596.451 258.491 595.601 257.106C594.767 255.748 595.225 253.955 596.847 253.305C599.097 252.403 602.869 254.534 604.321 256.042C604.412 256.136 605.321 257.326 605.806 257.988C605.729 257.22 605.648 256.455 605.598 255.677C605.452 253.43 605.382 251.151 605.301 248.877C605.276 248.181 605.243 247.487 605.211 246.794C604.889 246.884 601.07 247.937 599.243 247.711C597.62 247.51 595.613 246.839 594.763 245.453C593.929 244.097 594.387 242.304 596.008 241.654C598.258 240.751 602.03 242.883 603.482 244.39C603.591 244.503 604.897 246.217 605.206 246.667C605.138 245.138 605.054 243.614 604.905 242.116C604.703 240.048 604.38 238.03 603.909 236.095C603.76 236.137 599.778 237.254 597.907 237.022C596.284 236.82 594.277 236.15 593.426 234.764C592.593 233.407 593.05 231.614 594.672 230.964C596.922 230.062 600.694 232.193 602.146 233.701C602.259 233.819 603.663 235.663 603.892 236.014C603.863 235.899 603.848 235.777 603.818 235.663C603.288 233.604 602.491 231.67 601.648 229.893C601.161 228.859 600.632 227.896 600.095 226.97C599.377 227.247 596.079 228.483 594.37 228.445C592.732 228.409 590.657 227.945 589.646 226.652C588.655 225.387 588.895 223.559 590.429 222.75C592.559 221.626 596.561 223.364 598.185 224.716C598.274 224.79 599.08 225.629 599.659 226.247C599.41 225.832 599.16 225.401 598.913 225.008C597.987 223.531 597.04 222.231 596.192 221.085C595.703 220.438 595.248 219.861 594.815 219.326C593.956 219.261 590.494 218.959 589.024 218.217C587.59 217.492 585.981 216.204 585.731 214.63C585.487 213.088 586.619 211.567 588.386 211.498C590.84 211.4 593.521 214.636 594.283 216.522C594.348 216.685 595.058 219.343 595.013 219.341C595.013 219.341 594.972 219.338 594.961 219.337C595.388 219.845 595.84 220.394 596.32 221.003C597.198 222.134 598.179 223.418 599.143 224.883C600.111 226.343 601.118 227.956 602.011 229.742C602.909 231.532 603.754 233.456 604.346 235.541C604.352 235.565 604.356 235.59 604.363 235.614C604.396 234.955 604.557 233.113 604.587 232.974C605.009 231 607.087 227.411 609.526 227.144C611.282 226.953 612.666 228.287 612.695 229.844C612.725 231.434 611.364 232.944 610.074 233.871C608.621 234.917 604.727 235.782 604.417 235.85C604.961 237.841 605.342 239.925 605.601 242.054C605.751 243.271 605.86 244.5 605.953 245.734C606.002 245.165 606.05 244.657 606.066 244.586C606.487 242.611 608.566 239.023 611.005 238.756C612.762 238.564 614.144 239.899 614.174 241.456C614.204 243.046 612.843 244.556 611.554 245.483C610.246 246.423 606.943 247.223 606.066 247.423C606.096 247.897 606.132 248.37 606.16 248.844C606.295 251.117 606.42 253.387 606.616 255.61C606.684 256.393 606.784 257.162 606.88 257.932C606.924 257.426 606.967 257.001 606.98 256.937C607.401 254.962 609.479 251.374 611.917 251.107C613.674 250.916 615.058 252.25 615.087 253.808C615.118 255.398 613.756 256.908 612.466 257.835C611.219 258.733 608.176 259.496 607.136 259.739C607.26 260.525 607.383 261.311 607.543 262.068C607.664 262.582 607.742 263.084 607.895 263.595C608.035 264.102 608.174 264.606 608.311 265.104C608.614 266.055 608.92 267.036 609.241 267.956C609.459 268.598 609.68 269.205 609.9 269.818C609.821 269.039 609.703 267.511 609.708 267.382C609.768 266.047 610.437 263.909 611.571 262.445C611.579 262.247 611.604 262.051 611.653 261.859C612.029 260.341 613.681 259.293 615.358 259.811C617.686 260.53 618.92 264.432 618.892 266.444C618.89 266.563 618.715 267.848 618.59 268.657C618.743 268.192 618.884 267.738 619.048 267.261C619.364 266.314 619.71 265.378 620.077 264.37C620.273 263.889 620.471 263.404 620.671 262.912C620.858 262.422 621.124 261.926 621.35 261.426C621.901 260.279 622.52 259.14 623.171 258.007C622.268 257.751 619.078 256.801 617.839 255.807C616.606 254.818 615.336 253.242 615.459 251.656C615.581 250.102 617.04 248.838 618.783 249.116C621.203 249.503 623.068 253.189 623.372 255.181C623.391 255.305 623.434 256.758 623.441 257.556C623.839 256.878 624.231 256.198 624.657 255.524C625.887 253.576 627.198 251.64 628.497 249.703C628.896 249.11 629.285 248.515 629.677 247.919C629.355 247.832 625.535 246.778 624.148 245.664C622.915 244.675 621.644 243.1 621.768 241.514C621.889 239.961 623.348 238.695 625.092 238.975C627.511 239.361 629.376 243.047 629.681 245.04C629.704 245.19 629.762 247.28 629.749 247.811C630.611 246.502 631.457 245.189 632.234 243.863C633.309 242.036 634.254 240.188 635.025 238.337C634.874 238.296 630.883 237.212 629.462 236.072C628.229 235.083 626.958 233.508 627.081 231.921C627.202 230.368 628.662 229.103 630.405 229.383C632.825 229.769 634.69 233.455 634.994 235.448C635.017 235.604 635.079 237.852 635.059 238.26C635.105 238.15 635.166 238.04 635.21 237.93C636.005 235.943 636.504 233.927 636.869 232.019C637.085 230.91 637.222 229.839 637.331 228.795C636.565 228.664 633.072 228.025 631.67 227.128C630.325 226.269 628.874 224.832 628.806 223.243C628.741 221.686 630.04 220.282 631.806 220.384C634.257 220.524 636.552 224.001 637.093 225.95C637.122 226.057 637.292 227.165 637.402 227.973C637.443 227.501 637.496 227.014 637.525 226.562C637.641 224.861 637.633 223.297 637.614 221.913C637.596 221.126 637.562 220.414 637.524 219.748C636.845 219.259 634.14 217.256 633.361 215.892C632.6 214.561 632.033 212.672 632.772 211.233C633.496 209.825 635.353 209.128 636.869 209.964C638.974 211.125 639.265 215.18 638.766 217.139C638.723 217.308 637.716 219.884 637.681 219.86C637.681 219.86 637.648 219.836 637.64 219.83C637.692 220.47 637.739 221.157 637.773 221.907C637.825 223.295 637.87 224.862 637.794 226.572C637.723 228.28 637.593 230.136 637.264 232.077C636.937 234.023 636.486 236.056 635.724 238.095C635.716 238.118 635.703 238.142 635.695 238.165C636.12 237.631 637.361 236.178 637.47 236.076C639.008 234.643 642.9 232.702 645.094 233.714C646.675 234.443 647.026 236.257 646.114 237.57C645.187 238.911 643.145 239.481 641.512 239.602Z" fill="#2C6CD3"/>
<path d="M600.224 226.556C600.184 226.575 599.626 223.887 599.611 223.713C599.449 221.707 600.421 217.743 602.697 216.895C604.336 216.284 606.054 217.237 606.53 218.731C607.017 220.257 606.139 222.043 605.162 223.25C604.016 224.666 600.227 226.554 600.224 226.556Z" fill="#2C6CD3"/>
<path d="M472.71 253.318C473.866 253.403 476.23 252.62 476.419 252.557C476.886 253.772 477.473 254.984 478.14 256.181C478.521 256.865 478.927 257.544 479.344 258.219C479.104 257.936 478.886 257.685 478.852 257.653C477.886 256.754 475.444 255.536 474.067 256.17C473.074 256.628 472.855 257.766 473.427 258.59C474.011 259.433 475.293 259.79 476.318 259.866C477.358 259.942 479.388 259.312 479.924 259.138C480.087 259.395 480.247 259.655 480.411 259.911C481.197 261.144 481.989 262.372 482.725 263.598C482.985 264.03 483.223 264.464 483.463 264.897C483.25 264.647 483.067 264.437 483.035 264.408C482.07 263.508 479.628 262.29 478.25 262.925C477.259 263.382 477.038 264.52 477.61 265.345C478.194 266.187 479.477 266.545 480.502 266.62C481.494 266.693 483.374 266.127 484.01 265.924C484.241 266.374 484.474 266.826 484.677 267.272C484.807 267.58 484.956 267.867 485.068 268.183C485.187 268.494 485.304 268.801 485.42 269.106C485.62 269.699 485.83 270.31 486.01 270.894C486.137 271.299 486.252 271.687 486.367 272.078C486.114 271.645 485.6 270.808 485.548 270.742C484.743 269.718 482.529 268.176 481.063 268.612C480.007 268.927 479.601 270.021 480.031 270.915C480.469 271.828 481.677 272.361 482.677 272.578C483.779 272.817 486.151 272.399 486.447 272.345C486.636 272.992 486.814 273.623 486.97 274.221C487.113 274.757 487.241 275.265 487.358 275.751L488.322 275.695C488.18 275.164 488.026 274.606 487.854 274.015C487.665 273.358 487.449 272.658 487.219 271.941C487.393 271.865 488.387 271.427 489.258 270.91C490.1 271.646 492.182 272.442 492.451 272.543C492.22 273.179 491.988 273.795 491.76 274.373C491.603 274.771 491.45 275.153 491.299 275.519L492.32 275.458C492.42 275.195 492.52 274.928 492.623 274.648C492.86 274.003 493.1 273.31 493.339 272.597C493.633 272.636 496.031 272.937 497.118 272.644C498.104 272.377 499.279 271.786 499.663 270.852C500.04 269.938 499.57 268.865 498.497 268.603C497.007 268.241 494.889 269.891 494.144 270.953C494.1 271.016 493.706 271.745 493.466 272.208C493.562 271.916 493.658 271.633 493.753 271.331C493.946 270.735 494.118 270.136 494.305 269.491C494.384 269.177 494.463 268.86 494.544 268.539C494.632 268.223 494.68 267.878 494.75 267.546C494.894 266.77 495 265.978 495.086 265.178C495.655 265.33 497.684 265.846 498.707 265.719C499.726 265.593 500.985 265.173 501.52 264.302C502.042 263.451 501.756 262.326 500.739 261.917C499.327 261.351 496.959 262.689 496.048 263.635C495.991 263.694 495.42 264.44 495.116 264.856C495.164 264.375 495.214 263.895 495.246 263.406C495.337 261.996 495.382 260.566 495.433 259.14C495.449 258.702 495.47 258.268 495.489 257.831C495.691 257.888 498.088 258.549 499.235 258.407C500.253 258.28 501.513 257.86 502.046 256.99C502.569 256.138 502.283 255.013 501.265 254.606C499.853 254.039 497.486 255.377 496.575 256.323C496.506 256.395 495.687 257.47 495.493 257.753C495.536 256.793 495.589 255.837 495.682 254.897C495.809 253.599 496.011 252.332 496.306 251.118C496.4 251.145 498.899 251.845 500.073 251.7C501.091 251.573 502.351 251.153 502.885 250.283C503.408 249.431 503.122 248.306 502.104 247.898C500.692 247.331 498.325 248.669 497.413 249.615C497.341 249.689 496.461 250.847 496.317 251.067C496.336 250.995 496.345 250.918 496.363 250.847C496.696 249.554 497.197 248.341 497.725 247.225C498.03 246.577 498.362 245.972 498.7 245.391C499.151 245.566 501.221 246.34 502.293 246.317C503.32 246.294 504.623 246.003 505.257 245.192C505.879 244.398 505.728 243.251 504.766 242.742C503.429 242.038 500.917 243.128 499.898 243.976C499.843 244.023 499.336 244.549 498.973 244.937C499.13 244.676 499.286 244.405 499.442 244.159C500.022 243.232 500.616 242.416 501.15 241.697C501.456 241.29 501.743 240.929 502.014 240.592C502.553 240.551 504.725 240.362 505.648 239.896C506.548 239.442 507.558 238.633 507.714 237.645C507.867 236.677 507.158 235.723 506.048 235.679C504.508 235.618 502.826 237.648 502.348 238.832C502.307 238.934 501.861 240.603 501.89 240.601C501.89 240.601 501.916 240.6 501.922 240.599C501.653 240.918 501.37 241.262 501.068 241.644C500.517 242.353 499.902 243.159 499.297 244.078C498.69 244.995 498.058 246.007 497.497 247.128C496.933 248.251 496.403 249.458 496.032 250.767C496.027 250.782 496.026 250.798 496.021 250.813C496 250.399 495.899 249.244 495.88 249.156C495.616 247.917 494.312 245.665 492.781 245.497C491.679 245.377 490.81 246.215 490.792 247.192C490.773 248.19 491.627 249.137 492.437 249.719C493.349 250.375 495.792 250.918 495.987 250.961C495.646 252.21 495.407 253.519 495.245 254.854C495.151 255.618 495.082 256.389 495.024 257.164C494.992 256.807 494.963 256.487 494.953 256.443C494.689 255.204 493.384 252.952 491.853 252.785C490.75 252.664 489.883 253.503 489.864 254.48C489.845 255.478 490.7 256.425 491.508 257.007C492.329 257.597 494.402 258.099 494.953 258.225C494.934 258.522 494.912 258.819 494.894 259.116C494.808 260.543 494.731 261.967 494.607 263.362C494.564 263.853 494.502 264.336 494.441 264.82C494.414 264.502 494.387 264.236 494.379 264.195C494.115 262.955 492.81 260.704 491.28 260.536C490.177 260.417 489.31 261.254 489.291 262.231C489.272 263.229 490.127 264.177 490.936 264.758C491.719 265.322 493.628 265.801 494.281 265.952C494.203 266.445 494.126 266.939 494.026 267.414C493.949 267.737 493.9 268.052 493.804 268.372C493.716 268.69 493.629 269.006 493.543 269.319C493.352 269.915 493.16 270.532 492.958 271.109C492.821 271.512 492.683 271.893 492.545 272.277C492.594 271.789 492.669 270.83 492.665 270.749C492.627 269.911 492.208 268.569 491.496 267.651C491.491 267.527 491.474 267.404 491.444 267.283C491.208 266.33 490.172 265.672 489.119 265.997C487.658 266.448 486.884 268.897 486.902 270.16C486.903 270.234 487.012 271.041 487.092 271.549C486.996 271.257 486.907 270.973 486.805 270.672C486.606 270.078 486.39 269.491 486.159 268.858C486.035 268.556 485.911 268.251 485.785 267.943C485.667 267.636 485.501 267.324 485.359 267.011C485.013 266.291 484.625 265.577 484.217 264.865C484.783 264.705 486.785 264.108 487.563 263.485C488.336 262.863 489.134 261.875 489.056 260.88C488.979 259.905 488.064 259.112 486.97 259.287C485.451 259.529 484.281 261.842 484.09 263.093C484.079 263.171 484.052 264.082 484.047 264.583C483.798 264.158 483.551 263.731 483.284 263.308C482.512 262.086 481.689 260.871 480.873 259.655C480.623 259.282 480.379 258.908 480.134 258.535C480.336 258.48 482.733 257.819 483.603 257.12C484.377 256.499 485.174 255.51 485.096 254.515C485.02 253.541 484.104 252.747 483.01 252.922C481.491 253.165 480.321 255.478 480.131 256.728C480.116 256.823 480.079 258.134 480.088 258.468C479.547 257.646 479.016 256.822 478.527 255.99C477.853 254.843 477.26 253.684 476.776 252.522C476.871 252.497 479.376 251.816 480.268 251.101C481.042 250.479 481.839 249.491 481.761 248.496C481.685 247.521 480.769 246.728 479.675 246.903C478.157 247.145 476.987 249.458 476.796 250.709C476.781 250.807 476.742 252.218 476.755 252.474C476.727 252.405 476.688 252.336 476.661 252.267C476.162 251.02 475.848 249.754 475.619 248.557C475.484 247.861 475.397 247.189 475.329 246.534C475.81 246.451 478.003 246.05 478.882 245.487C479.726 244.948 480.637 244.046 480.679 243.049C480.721 242.072 479.905 241.191 478.797 241.254C477.259 241.342 475.819 243.524 475.479 244.748C475.461 244.814 475.355 245.51 475.285 246.017C475.259 245.721 475.226 245.415 475.208 245.132C475.135 244.065 475.14 243.083 475.153 242.214C475.164 241.72 475.185 241.273 475.21 240.855C475.635 240.548 477.333 239.291 477.823 238.435C478.3 237.6 478.655 236.415 478.191 235.512C477.737 234.627 476.571 234.19 475.62 234.715C474.299 235.444 474.117 237.988 474.43 239.218C474.457 239.324 475.088 240.941 475.111 240.925C475.111 240.925 475.132 240.91 475.137 240.907C475.105 241.308 475.075 241.739 475.053 242.211C475.02 243.081 474.992 244.065 475.04 245.138C475.085 246.21 475.166 247.373 475.373 248.592C475.578 249.813 475.861 251.09 476.34 252.369C476.345 252.383 476.352 252.398 476.358 252.412C476.091 252.078 475.312 251.166 475.244 251.101C474.279 250.202 471.836 248.984 470.459 249.618C469.467 250.076 469.246 251.214 469.819 252.038C470.404 252.885 471.685 253.242 472.71 253.318Z" fill="#2C6CD3"/>
<path d="M290.167 228.258C288.358 228.859 284.063 228.516 284.059 228.515C284.015 228.512 285.165 225.986 285.258 225.835C286.328 224.078 289.524 221.264 291.931 221.708C293.665 222.029 294.526 223.692 294.025 225.18C293.514 226.7 291.707 227.745 290.167 228.258Z" fill="#2C6CD3"/>
<path d="M287.88 239.602C286.038 239.738 282.271 238.49 281.972 238.39C281.227 240.326 280.292 242.257 279.228 244.163C278.622 245.253 277.973 246.334 277.308 247.411C277.692 246.961 278.038 246.561 278.093 246.51C279.632 245.076 283.524 243.136 285.717 244.148C287.298 244.877 287.649 246.69 286.737 248.004C285.807 249.346 283.763 249.916 282.13 250.036C280.473 250.159 277.237 249.153 276.385 248.877C276.126 249.288 275.871 249.7 275.61 250.11C274.356 252.075 273.095 254.031 271.922 255.985C271.508 256.673 271.129 257.365 270.746 258.055C271.086 257.656 271.377 257.323 271.427 257.275C272.966 255.841 276.857 253.901 279.051 254.913C280.633 255.642 280.983 257.455 280.072 258.769C279.141 260.111 277.097 260.681 275.464 260.801C273.883 260.919 270.887 260.016 269.874 259.692C269.505 260.41 269.134 261.129 268.812 261.84C268.604 262.33 268.367 262.788 268.188 263.291C268 263.786 267.813 264.275 267.628 264.761C267.31 265.706 266.974 266.681 266.689 267.61C266.484 268.256 266.303 268.873 266.118 269.496C266.521 268.807 267.341 267.472 267.424 267.368C268.707 265.736 272.233 263.278 274.569 263.973C276.252 264.475 276.899 266.217 276.214 267.643C275.516 269.099 273.59 269.946 271.996 270.292C270.241 270.673 266.461 270.007 265.989 269.921C265.688 270.952 265.405 271.957 265.155 272.91C264.929 273.764 264.724 274.574 264.536 275.349L263 275.258C263.226 274.411 263.47 273.522 263.745 272.581C264.046 271.533 264.391 270.419 264.757 269.277C264.479 269.155 262.895 268.457 261.507 267.634C260.165 268.806 256.848 270.074 256.419 270.236C256.787 271.249 257.156 272.23 257.521 273.152C257.77 273.786 258.015 274.394 258.255 274.978L256.628 274.882C256.469 274.462 256.309 274.035 256.146 273.591C255.767 272.563 255.385 271.459 255.005 270.323C254.537 270.384 250.715 270.864 248.983 270.396C247.412 269.971 245.539 269.03 244.927 267.541C244.328 266.084 245.075 264.375 246.786 263.958C249.16 263.379 252.536 266.009 253.722 267.702C253.792 267.802 254.419 268.963 254.802 269.701C254.649 269.236 254.495 268.786 254.344 268.305C254.038 267.356 253.763 266.401 253.464 265.373C253.338 264.873 253.211 264.367 253.084 263.857C252.945 263.353 252.868 262.804 252.756 262.273C252.525 261.037 252.358 259.775 252.219 258.5C251.313 258.743 248.08 259.566 246.449 259.363C244.825 259.162 242.818 258.491 241.968 257.106C241.135 255.748 241.592 253.955 243.214 253.305C245.465 252.403 249.236 254.534 250.688 256.042C250.779 256.136 251.688 257.326 252.173 257.988C252.096 257.22 252.015 256.455 251.965 255.677C251.819 253.43 251.75 251.151 251.668 248.877C251.644 248.181 251.61 247.487 251.578 246.794C251.256 246.884 247.438 247.937 245.61 247.711C243.988 247.51 241.98 246.839 241.129 245.453C240.296 244.097 240.753 242.304 242.375 241.654C244.625 240.751 248.397 242.883 249.849 244.39C249.958 244.503 251.264 246.217 251.573 246.667C251.505 245.138 251.421 243.614 251.272 242.116C251.071 240.048 250.747 238.03 250.276 236.095C250.127 236.137 246.145 237.254 244.275 237.022C242.652 236.82 240.644 236.15 239.793 234.764C238.96 233.407 239.417 231.614 241.039 230.964C243.289 230.062 247.061 232.193 248.513 233.701C248.627 233.819 250.03 235.663 250.259 236.014C250.231 235.899 250.215 235.777 250.186 235.663C249.655 233.604 248.858 231.67 248.015 229.893C247.528 228.859 247 227.896 246.462 226.97C245.744 227.247 242.447 228.483 240.737 228.445C239.1 228.409 237.024 227.945 236.013 226.652C235.022 225.387 235.262 223.559 236.796 222.75C238.925 221.626 242.929 223.364 244.552 224.716C244.641 224.79 245.448 225.629 246.026 226.247C245.777 225.832 245.528 225.401 245.28 225.008C244.355 223.531 243.407 222.231 242.559 221.085C242.07 220.438 241.615 219.861 241.182 219.326C240.323 219.261 236.861 218.959 235.391 218.217C233.957 217.492 232.348 216.204 232.098 214.63C231.855 213.088 232.986 211.567 234.753 211.498C237.207 211.4 239.888 214.636 240.65 216.522C240.715 216.685 241.425 219.343 241.38 219.341C241.38 219.341 241.339 219.338 241.328 219.337C241.756 219.845 242.207 220.394 242.688 221.003C243.565 222.134 244.546 223.418 245.51 224.883C246.478 226.343 247.485 227.956 248.379 229.742C249.277 231.532 250.122 233.456 250.713 235.541C250.719 235.565 250.723 235.59 250.73 235.614C250.763 234.955 250.924 233.113 250.955 232.974C251.376 231 253.454 227.411 255.893 227.144C257.65 226.953 259.033 228.287 259.063 229.844C259.092 231.434 257.731 232.944 256.442 233.871C254.988 234.917 251.095 235.782 250.784 235.85C251.328 237.841 251.709 239.925 251.969 242.054C252.118 243.271 252.227 244.5 252.32 245.734C252.369 245.165 252.417 244.657 252.433 244.586C252.854 242.611 254.933 239.023 257.372 238.756C259.129 238.564 260.512 239.899 260.541 241.456C260.571 243.046 259.21 244.556 257.921 245.483C256.613 246.423 253.31 247.223 252.433 247.423C252.463 247.897 252.499 248.37 252.527 248.844C252.663 251.117 252.787 253.387 252.984 255.61C253.052 256.393 253.152 257.162 253.248 257.932C253.292 257.426 253.335 257.001 253.348 256.937C253.769 254.962 255.847 251.374 258.285 251.107C260.042 250.916 261.426 252.25 261.456 253.808C261.486 255.398 260.124 256.908 258.834 257.835C257.586 258.733 254.545 259.496 253.504 259.739C253.628 260.525 253.751 261.311 253.911 262.068C254.032 262.582 254.11 263.084 254.263 263.595C254.403 264.102 254.542 264.606 254.679 265.104C254.982 266.055 255.288 267.036 255.609 267.956C255.827 268.598 256.048 269.205 256.268 269.818C256.189 269.039 256.071 267.511 256.076 267.382C256.136 266.047 256.805 263.909 257.939 262.445C257.947 262.247 257.972 262.051 258.021 261.859C258.397 260.341 260.049 259.293 261.726 259.811C264.054 260.53 265.288 264.432 265.26 266.444C265.258 266.563 265.083 267.848 264.958 268.657C265.111 268.192 265.252 267.738 265.416 267.261C265.732 266.314 266.078 265.378 266.445 264.37C266.641 263.889 266.839 263.404 267.039 262.912C267.226 262.422 267.492 261.926 267.718 261.426C268.269 260.279 268.888 259.14 269.54 258.007C268.636 257.751 265.446 256.801 264.207 255.807C262.974 254.818 261.704 253.242 261.827 251.656C261.949 250.102 263.408 248.838 265.151 249.116C267.571 249.503 269.436 253.189 269.74 255.181C269.76 255.305 269.802 256.758 269.809 257.556C270.207 256.878 270.599 256.198 271.025 255.524C272.255 253.576 273.566 251.64 274.865 249.703C275.264 249.11 275.652 248.515 276.045 247.919C275.723 247.832 271.903 246.778 270.516 245.664C269.283 244.675 268.012 243.1 268.136 241.514C268.257 239.961 269.716 238.695 271.46 238.975C273.879 239.361 275.744 243.047 276.049 245.04C276.072 245.19 276.131 247.28 276.117 247.811C276.979 246.502 277.825 245.189 278.603 243.863C279.677 242.036 280.622 240.188 281.393 238.337C281.242 238.296 277.251 237.212 275.83 236.072C274.597 235.083 273.326 233.508 273.45 231.921C273.57 230.368 275.03 229.103 276.774 229.383C279.193 229.769 281.058 233.455 281.362 235.448C281.386 235.604 281.447 237.852 281.427 238.26C281.473 238.15 281.534 238.04 281.577 237.93C282.372 235.943 282.871 233.927 283.237 232.019C283.452 230.91 283.589 229.839 283.698 228.795C282.933 228.664 279.439 228.025 278.037 227.128C276.693 226.269 275.241 224.832 275.175 223.243C275.109 221.686 276.408 220.282 278.174 220.384C280.625 220.524 282.92 224.001 283.461 225.95C283.49 226.057 283.66 227.165 283.77 227.973C283.812 227.501 283.864 227.014 283.893 226.562C284.009 224.861 284.001 223.297 283.982 221.913C283.964 221.126 283.93 220.414 283.892 219.748C283.214 219.259 280.508 217.256 279.729 215.892C278.968 214.561 278.401 212.672 279.14 211.233C279.864 209.825 281.721 209.128 283.237 209.964C285.342 211.125 285.633 215.18 285.135 217.139C285.091 217.308 284.085 219.884 284.049 219.86C284.049 219.86 284.016 219.836 284.008 219.83C284.06 220.47 284.107 221.157 284.141 221.907C284.193 223.295 284.238 224.862 284.162 226.572C284.091 228.28 283.962 230.136 283.632 232.077C283.306 234.023 282.854 236.056 282.092 238.095C282.084 238.118 282.071 238.142 282.063 238.165C282.488 237.631 283.729 236.178 283.838 236.076C285.376 234.643 289.268 232.702 291.462 233.714C293.043 234.443 293.394 236.257 292.483 237.57C291.556 238.911 289.513 239.481 287.88 239.602Z" fill="#2C6CD3"/>
<path d="M246.592 226.556C246.552 226.575 245.994 223.887 245.979 223.713C245.817 221.707 246.789 217.743 249.065 216.895C250.704 216.284 252.422 217.237 252.899 218.731C253.385 220.257 252.508 222.043 251.531 223.25C250.384 224.666 246.595 226.554 246.592 226.556Z" fill="#2C6CD3"/>
<path d="M618.601 112.483C618.601 76.007 584.999 46.732 544.643 49.2868C510.996 51.417 483.569 76.1665 480.741 106.998C479.131 124.541 485.326 140.74 496.485 153.011C506.657 164.197 512.217 178.307 512.217 192.873V201.553H586.872V192.872C586.872 178.321 592.401 164.213 602.571 153.046C612.577 142.061 618.601 127.921 618.601 112.483Z" fill="white" stroke="#263238" stroke-miterlimit="10" stroke-linejoin="round"/>
<path d="M586.872 201.572H512.217V218.514H586.872V201.572Z" fill="white" stroke="#263238" stroke-miterlimit="10" stroke-linecap="round" stroke-linejoin="round"/>
<path d="M582.525 235.497H516.564C514.163 235.497 512.217 233.711 512.217 231.509V218.556H586.872V231.509C586.873 233.711 584.926 235.497 582.525 235.497Z" fill="white" stroke="#263238" stroke-miterlimit="10" stroke-linecap="round" stroke-linejoin="round"/>
<path d="M571.172 252.417H527.917C525.099 252.417 522.715 250.714 521.92 248.369C521.337 246.653 520.776 244.931 519.96 243.296L516.057 235.476H583.034L579.13 243.296C578.314 244.93 577.752 246.653 577.17 248.369C576.375 250.714 573.99 252.417 571.172 252.417Z" fill="#263238" stroke="#263238" stroke-miterlimit="10"/>
<path d="M592.512 152.465C616.253 130.686 616.253 95.3745 592.512 73.5952C568.772 51.8159 530.281 51.8159 506.541 73.5952C482.8 95.3744 482.8 130.686 506.541 152.465C530.281 174.244 568.772 174.244 592.512 152.465Z" fill="#80A7E5"/>
<path opacity="0.65" d="M573.642 131.081C584.521 118.854 582.535 100.852 569.206 90.8723C555.878 80.8926 536.255 82.7146 525.377 94.9418C514.498 107.169 516.484 125.171 529.813 135.151C543.141 145.13 562.764 143.308 573.642 131.081Z" fill="white"/>
<path d="M541.404 201.46C541.404 201.46 538.767 122.358 532.909 111.32C527.051 100.282 522.518 112.063 527.807 127.309C533.095 142.555 549.714 139.784 553.49 123.151C557.267 106.519 551.224 97.5104 548.202 111.37C545.181 125.23 551.547 143.15 562.339 135.922C573.13 128.694 588.239 100.975 576.908 105.825C565.577 110.677 552.735 157.801 561.044 201.459" stroke="#263238" stroke-miterlimit="10" stroke-linecap="round" stroke-linejoin="round"/>
<path d="M184.523 117.815L198.492 77.1582C198.492 77.1582 197.485 74.9858 189.381 73.1273C181.278 71.2688 177.728 76.229 173.169 77.6233C168.611 79.0175 162.886 70.8535 156.962 70.6535C145.96 70.2821 143.289 74.3705 136.198 77.1582C129.108 79.9459 129.108 74.3705 121.51 72.0478C113.913 69.7243 106.822 77.6233 106.822 77.6233L126.431 115.795C92.9057 126.492 68.6968 157.132 68.6968 193.269C68.6968 238.301 106.287 274.806 152.658 274.806C199.029 274.806 236.619 238.301 236.619 193.269C236.619 159.192 215.09 130.004 184.523 117.815Z" fill="white" stroke="#263238" stroke-miterlimit="10" stroke-linejoin="round"/>
<path d="M134.806 110.825L128.593 102.15" stroke="#263238" stroke-miterlimit="10"/>
<path d="M175.115 98.7351L171.386 111.288" stroke="#263238" stroke-miterlimit="10"/>
<path d="M136.535 99.0254L136.066 95.3186" stroke="#263238" stroke-miterlimit="10"/>
<path d="M138.085 111.288L136.924 102.1" stroke="#263238" stroke-miterlimit="10"/>
<path d="M181.804 96.0596L183.243 93.2356" stroke="#263238" stroke-miterlimit="10"/>
<path d="M174.16 111.056L180.422 98.7705" stroke="#263238" stroke-miterlimit="10"/>
<path d="M189.999 163.842C188.241 163.842 186.762 162.587 186.652 160.955C184.891 135.101 166.722 118.153 166.538 117.985C165.227 116.782 165.227 114.833 166.538 113.629C167.849 112.427 169.974 112.427 171.286 113.629C172.108 114.383 191.435 132.417 193.353 160.571C193.469 162.268 192.062 163.731 190.212 163.836C190.14 163.84 190.069 163.842 189.999 163.842Z" fill="white" stroke="#263238" stroke-miterlimit="10" stroke-linejoin="round"/>
<path d="M207.298 157.75C205.599 158.164 203.819 157.3 203.255 155.749C194.307 131.18 172 119.086 171.775 118.967C170.172 118.114 169.625 116.23 170.554 114.758C171.485 113.287 173.538 112.786 175.142 113.638C176.148 114.173 199.879 127.043 209.623 153.797C210.211 155.41 209.262 157.155 207.503 157.693C207.434 157.715 207.366 157.733 207.298 157.75Z" fill="white" stroke="#263238" stroke-miterlimit="10" stroke-linejoin="round"/>
<path d="M183.178 119.222H124.871C122.472 119.222 120.528 117.438 120.528 115.238C120.528 113.038 122.472 111.254 124.871 111.254H183.178C185.577 111.254 187.521 113.038 187.521 115.238C187.52 117.438 185.576 119.222 183.178 119.222Z" fill="white" stroke="#263238" stroke-miterlimit="10" stroke-linejoin="round"/>
<path d="M191.054 229.427H98.9102V252.485H191.054V229.427Z" fill="#80A7E5" stroke="#263238" stroke-miterlimit="10"/>
<path d="M235.097 229.427H190.931V252.485H235.097V229.427Z" fill="#A3A3A3" stroke="#263238" stroke-miterlimit="10" stroke-linejoin="round"/>
<path d="M99.5781 233.819H122.28" stroke="#263238" stroke-miterlimit="10" stroke-linejoin="round"/>
<path d="M181.372 236.38H191.387H197.789" stroke="#263238" stroke-miterlimit="10" stroke-linejoin="round"/>
<path d="M156 229.425H135.431V252.485H156V229.425Z" fill="white" stroke="#263238" stroke-miterlimit="10" stroke-linejoin="round"/>
<path d="M234.856 236.727H216.44" stroke="#263238" stroke-miterlimit="10" stroke-linejoin="round"/>
<path d="M198.441 206.776H106.298V229.834H198.441V206.776Z" fill="#80A7E5" stroke="#263238" stroke-miterlimit="10"/>
<path d="M242.485 206.775H198.318V229.833H242.485V206.775Z" fill="#A3A3A3" stroke="#263238" stroke-miterlimit="10" stroke-linejoin="round"/>
<path d="M106.965 211.168H129.668" stroke="#263238" stroke-miterlimit="10" stroke-linejoin="round"/>
<path d="M119.985 216.658H139.015" stroke="#263238" stroke-miterlimit="10" stroke-linejoin="round"/>
<path d="M188.76 213.73H198.776H205.176" stroke="#263238" stroke-miterlimit="10" stroke-linejoin="round"/>
<path d="M106.965 223.246H114.978" stroke="#263238" stroke-miterlimit="10" stroke-linejoin="round"/>
<path d="M118.316 223.246H124.993" stroke="#263238" stroke-miterlimit="10" stroke-linejoin="round"/>
<path d="M198.775 221.417H163.387" stroke="#263238" stroke-miterlimit="10" stroke-linejoin="round"/>
<path d="M163.387 206.775H142.817V229.834H163.387V206.775Z" fill="white" stroke="#263238" stroke-miterlimit="10" stroke-linejoin="round"/>
<path d="M242.242 218.66H228.549" stroke="#263238" stroke-miterlimit="10" stroke-linejoin="round"/>
<path d="M198.329 225.688H208.481" stroke="#263238" stroke-miterlimit="10" stroke-linejoin="round"/>
<path d="M198.564 218.049H217.925" stroke="#263238" stroke-miterlimit="10" stroke-linejoin="round"/>
<path d="M242.243 214.077H223.828" stroke="#263238" stroke-miterlimit="10" stroke-linejoin="round"/>
<path d="M212.495 225.688H217.453" stroke="#263238" stroke-miterlimit="10" stroke-linejoin="round"/>
<path d="M236.246 226.573H121.794V275.149H236.246V226.573Z" fill="#CCCCCC" stroke="#263238" stroke-miterlimit="10" stroke-linejoin="round"/>
<path d="M225.513 226.826V247.081" stroke="#263238" stroke-miterlimit="10" stroke-linejoin="round"/>
<path d="M228.578 226.967V233.129" stroke="#263238" stroke-miterlimit="10" stroke-linejoin="round"/>
<path d="M228.427 234.669V236.91" stroke="#263238" stroke-miterlimit="10" stroke-linejoin="round"/>
<path d="M222.972 226.573H121.794V275.149H222.972V226.573Z" fill="#80A7E5" stroke="#263238" stroke-miterlimit="10" stroke-linejoin="round"/>
<path d="M216.336 267.403V234.319C214.348 234.319 212.736 232.84 212.736 231.015H132.535C132.535 232.84 130.923 234.319 128.934 234.319C128.76 234.319 128.594 234.293 128.427 234.271V267.449C128.594 267.427 128.76 267.403 128.934 267.403C130.923 267.403 132.535 268.881 132.535 270.706H212.736C212.736 268.882 214.348 267.403 216.336 267.403ZM172.382 264.56C164.135 264.56 157.449 258.427 157.449 250.861C157.449 243.295 164.135 237.162 172.382 237.162C180.628 237.162 187.313 243.295 187.313 250.861C187.313 258.427 180.628 264.56 172.382 264.56Z" fill="white" stroke="#263238" stroke-miterlimit="10" stroke-linejoin="round"/>
<path d="M177.019 226.437H167.861V275.08H177.019V226.437Z" fill="white" stroke="#263238" stroke-miterlimit="10" stroke-linejoin="round"/>
<path d="M114.363 238.094H75.4131V250.415H114.363V238.094Z" fill="white" stroke="#263238" stroke-miterlimit="10" stroke-linejoin="round"/>
<path d="M85.3347 238.094H80.374V250.415H85.3347V238.094Z" fill="#263238" stroke="#263238" stroke-miterlimit="10" stroke-linejoin="round"/>
<path d="M90.1239 238.094H87.6436V250.415H90.1239V238.094Z" fill="#263238" stroke="#263238" stroke-miterlimit="10" stroke-linejoin="round"/>
<path d="M112.433 225.733H73.4834V238.055H112.433V225.733Z" fill="white" stroke="#263238" stroke-miterlimit="10" stroke-linejoin="round"/>
<path d="M83.405 225.733H78.4443V238.055H83.405V225.733Z" fill="#263238" stroke="#263238" stroke-miterlimit="10" stroke-linejoin="round"/>
<path d="M88.1942 225.733H85.7139V238.055H88.1942V225.733Z" fill="#263238" stroke="#263238" stroke-miterlimit="10" stroke-linejoin="round"/>
<path d="M114.363 213.373H75.4131V225.695H114.363V213.373Z" fill="white" stroke="#263238" stroke-miterlimit="10" stroke-linejoin="round"/>
<path d="M85.3347 213.373H80.374V225.695H85.3347V213.373Z" fill="#263238" stroke="#263238" stroke-miterlimit="10" stroke-linejoin="round"/>
<path d="M90.1239 213.373H87.6436V225.695H90.1239V213.373Z" fill="#263238" stroke="#263238" stroke-miterlimit="10" stroke-linejoin="round"/>
<path d="M80.537 238.094H41.5869V250.415H80.537V238.094Z" fill="white" stroke="#263238" stroke-miterlimit="10" stroke-linejoin="round"/>
<path d="M51.508 238.094H46.5474V250.415H51.508V238.094Z" fill="#263238" stroke="#263238" stroke-miterlimit="10" stroke-linejoin="round"/>
<path d="M56.2977 238.094H53.8174V250.415H56.2977V238.094Z" fill="#263238" stroke="#263238" stroke-miterlimit="10" stroke-linejoin="round"/>
<path d="M78.6078 225.733H39.6577V238.055H78.6078V225.733Z" fill="white" stroke="#263238" stroke-miterlimit="10" stroke-linejoin="round"/>
<path d="M49.5788 225.733H44.6182V238.055H49.5788V225.733Z" fill="#263238" stroke="#263238" stroke-miterlimit="10" stroke-linejoin="round"/>
<path d="M54.3685 225.733H51.8882V238.055H54.3685V225.733Z" fill="#263238" stroke="#263238" stroke-miterlimit="10" stroke-linejoin="round"/>
<path d="M80.537 213.373H41.5869V225.695H80.537V213.373Z" fill="white" stroke="#263238" stroke-miterlimit="10" stroke-linejoin="round"/>
<path d="M51.508 213.373H46.5474V225.695H51.508V213.373Z" fill="#263238" stroke="#263238" stroke-miterlimit="10" stroke-linejoin="round"/>
<path d="M56.2977 213.373H53.8174V225.695H56.2977V213.373Z" fill="#263238" stroke="#263238" stroke-miterlimit="10" stroke-linejoin="round"/>
<path d="M80.537 201.216H41.5869V213.538H80.537V201.216Z" fill="white" stroke="#263238" stroke-miterlimit="10" stroke-linejoin="round"/>
<path d="M51.508 201.216H46.5474V213.538H51.508V201.216Z" fill="#263238" stroke="#263238" stroke-miterlimit="10" stroke-linejoin="round"/>
<path d="M56.2977 201.216H53.8174V213.538H56.2977V201.216Z" fill="#263238" stroke="#263238" stroke-miterlimit="10" stroke-linejoin="round"/>
<path d="M80.537 189.06H41.5869V201.382H80.537V189.06Z" fill="white" stroke="#263238" stroke-miterlimit="10" stroke-linejoin="round"/>
<path d="M51.508 189.06H46.5474V201.382H51.508V189.06Z" fill="#263238" stroke="#263238" stroke-miterlimit="10" stroke-linejoin="round"/>
<path d="M56.2977 189.06H53.8174V201.382H56.2977V189.06Z" fill="#263238" stroke="#263238" stroke-miterlimit="10" stroke-linejoin="round"/>
<path d="M401.22 111.002C401.22 111.002 377.153 114.273 374.925 114.136C372.696 114 363.783 112.773 363.783 112.773L356.354 113.727L359.029 123.949C359.029 123.949 364.377 124.767 366.903 123.813C369.429 122.859 371.954 121.359 371.954 121.359C371.954 121.359 403.301 125.584 406.124 123.268C408.945 120.951 401.22 111.002 401.22 111.002Z" fill="white" stroke="#263238" stroke-miterlimit="10"/>
<path d="M274.283 149.584L277.243 164.971C277.243 164.971 281.464 196.966 280.986 200.904C280.509 204.843 275.898 213.887 276.057 221.91C276.216 229.933 279.397 251.514 279.397 251.952C279.397 252.39 277.011 254.87 277.011 254.87C277.011 254.87 279.397 264.497 279.556 265.081C279.715 265.665 289.414 265.957 292.753 265.228C296.093 264.498 299.272 262.894 299.272 262.894C299.272 262.894 300.226 257.35 299.908 254.433C299.59 251.515 297.841 247.431 297.841 247.431C297.841 247.431 311.356 199.884 311.834 192.59C312.311 185.296 314.219 153.787 314.219 153.787L290.845 142.117L274.283 149.584Z" fill="#263238" stroke="#263238" stroke-miterlimit="10"/>
<path d="M322.966 94.8525C322.966 94.8525 325.988 110.899 325.829 124.757C325.669 138.616 325.829 151.161 325.352 152.911C324.875 154.662 316.447 153.495 316.447 153.495L322.012 100.833L322.966 94.8525Z" fill="white" stroke="#263238" stroke-miterlimit="10"/>
<path d="M288.62 49.7771C288.62 49.7771 270.015 67.1365 269.22 70.7834C268.426 74.4303 269.061 83.1826 269.22 84.2039C269.38 85.2251 273.832 124.32 273.832 124.32C273.832 124.32 268.902 134.094 269.061 134.532C269.22 134.97 269.38 152.62 269.38 152.62C269.38 152.62 272.083 154.954 277.649 155.829C283.214 156.704 284.009 156.704 284.009 156.704L287.825 149.556L289.097 157.434C289.097 157.434 295.616 160.497 303.567 159.476C311.517 158.455 318.037 156.704 318.673 156.267C319.309 155.83 323.125 117.902 323.443 114.401C323.762 110.9 323.284 99.5208 322.966 94.8535C322.648 90.1853 317.401 70.9303 316.764 68.5958C316.129 66.2621 303.408 56.3426 299.273 54.8833C295.139 53.424 288.62 49.7771 288.62 49.7771Z" fill="white" stroke="#263238" stroke-miterlimit="10" stroke-linejoin="round"/>
<path d="M323.407 103.968C323.286 100.456 323.11 96.966 322.966 94.8526C322.648 90.1844 317.401 70.9294 316.764 68.5949C316.129 66.2613 303.408 56.3417 299.273 54.8825C295.139 53.424 288.62 49.7771 288.62 49.7771C288.62 49.7771 287.35 50.9621 285.469 52.7691L298.797 68.8861L306.747 68.5941L303.25 73.8454L323.407 103.968Z" fill="white" stroke="#263238" stroke-miterlimit="10" stroke-linejoin="round"/>
<path d="M288.619 49.7771L312.788 70.1994L320.421 92.6641C320.421 92.6641 318.194 72.0958 316.764 68.5949C315.333 65.094 309.767 60.5719 309.767 60.5719L288.619 49.7771Z" fill="#263238" stroke="#263238" stroke-miterlimit="10" stroke-linejoin="round"/>
<path d="M322.966 15.3504C322.966 15.3504 325.51 23.3734 325.352 25.4159C325.193 27.4584 323.603 30.2301 323.762 30.6673C323.921 31.1053 328.532 36.9399 328.056 37.6691C327.579 38.3983 324.08 40.1488 324.08 40.1488C324.08 40.1488 323.285 48.6099 322.649 50.6515C322.013 52.694 319.628 53.4232 315.334 52.84C311.04 52.2568 311.04 52.2568 311.04 52.2568L309.291 62.7595L290.846 49.7763L291.323 42.4824C291.323 42.4824 284.804 33.7301 283.85 31.1045C282.896 28.4788 286.712 11.7026 287.984 10.0981C289.256 8.4937 299.592 6.01318 307.702 6.01318C315.811 6.01318 323.762 9.95213 324.557 12.1398C325.352 14.3274 322.966 15.3504 322.966 15.3504Z" fill="white" stroke="#263238" stroke-miterlimit="10" stroke-linejoin="round"/>
<path d="M322.648 50.6523C323.176 48.9559 323.813 42.8344 324.015 40.8088C323.57 40.7615 323.065 40.7328 322.489 40.7328C319.308 40.7328 316.129 41.7541 313.743 43.7965C311.358 45.839 311.358 46.2762 309.768 45.401C308.178 44.5257 306.428 42.4833 305.952 41.462C305.475 40.4408 305.633 27.6035 305.633 27.6035C305.633 27.6035 308.655 25.1239 309.768 24.1026C310.881 23.0814 308.336 17.392 308.178 16.3708C308.019 15.3495 322.966 15.3495 322.966 15.3495C322.966 15.3495 325.352 14.3283 324.556 12.1398C323.76 9.95129 315.81 6.01318 307.701 6.01318C299.591 6.01318 289.256 8.49285 287.983 10.0981C286.711 11.7026 282.895 28.4788 283.849 31.1045C284.803 33.7301 291.322 42.4824 291.322 42.4824L297.841 39.5647C297.841 39.5647 295.138 37.3762 293.706 35.1886C292.275 33.0001 293.866 29.3532 296.409 27.6027C298.953 25.8522 300.703 28.1859 301.339 28.9151C301.975 29.6443 302.293 32.7081 302.293 34.8957C302.293 37.0842 301.339 43.94 301.975 45.9825C302.61 48.025 311.038 52.2551 311.038 52.2551C311.038 52.2551 311.038 52.2551 315.332 52.8383C319.627 53.424 322.012 52.6948 322.648 50.6523Z" fill="#263238" stroke="#263238" stroke-miterlimit="10" stroke-linejoin="round"/>
<path d="M319.628 32.8557C320.155 32.8557 320.582 32.1045 320.582 31.1779C320.582 30.2512 320.155 29.5 319.628 29.5C319.101 29.5 318.674 30.2512 318.674 31.1779C318.674 32.1045 319.101 32.8557 319.628 32.8557Z" fill="#263238"/>
<path d="M317.401 27.7497C317.401 27.7497 319.469 25.7072 322.012 27.0204" stroke="#263238" stroke-miterlimit="10" stroke-linejoin="round"/>
<path d="M322.807 45.2549C322.807 45.2549 318.832 44.9629 317.56 43.2124" stroke="white" stroke-miterlimit="10" stroke-linejoin="round"/>
<path d="M290.527 47.2974L311.994 61.155L311.358 69.1789L288.619 49.777L290.527 47.2974Z" fill="white" stroke="#263238" stroke-miterlimit="10" stroke-linejoin="round"/>
<path d="M345.228 113.087C345.228 113.087 351.747 110.753 352.383 110.461C353.019 110.169 356.835 111.191 356.835 111.191C356.835 111.191 364.786 122.131 364.945 123.007C365.104 123.882 365.104 124.757 363.196 125.195C361.288 125.633 361.063 125.495 361.063 125.495C361.063 125.495 357.018 126.793 354.792 125.626C352.565 124.458 345.704 123.736 345.704 123.736L345.228 113.087Z" fill="white" stroke="#263238" stroke-miterlimit="10"/>
<path d="M339.662 112.503L345.227 113.087L345.705 123.736L339.98 122.569L339.662 112.503Z" fill="white" stroke="#263238" stroke-miterlimit="10"/>
<path d="M273.99 82.5994C273.99 82.5994 288.143 109.586 291.481 115.13C294.821 120.673 298.16 120.965 298.954 121.256C299.749 121.548 340.297 124.903 340.297 124.903L340.774 112.65L309.29 106.815L297.523 73.41C297.523 73.41 291.162 64.2197 287.505 63.1984C283.848 62.1772 279.554 63.4904 279.554 63.4904" fill="white"/>
<path d="M273.99 82.5994C273.99 82.5994 288.143 109.586 291.481 115.13C294.821 120.673 298.16 120.965 298.954 121.256C299.749 121.548 340.297 124.903 340.297 124.903L340.774 112.65L309.29 106.815L297.523 73.41C297.523 73.41 291.162 64.2197 287.505 63.1984C283.848 62.1772 279.554 63.4904 279.554 63.4904" stroke="#263238" stroke-miterlimit="10" stroke-linejoin="round"/>
<path d="M288.938 111.045C288.938 111.045 280.669 115.859 278.284 116.88" stroke="#263238" stroke-miterlimit="10"/>
<path d="M288.779 115.713C288.779 115.713 279.874 122.132 277.012 123.882" stroke="#263238" stroke-miterlimit="10"/>
<path d="M406.123 123.268C408.945 120.951 401.22 111.002 401.22 111.002C401.22 111.002 400.002 111.167 398.096 111.421C398.944 113.811 401.449 120.774 402.96 123.915C404.553 123.831 405.683 123.628 406.123 123.268Z" fill="#2C6CD3" stroke="#263238" stroke-miterlimit="10"/>
<path d="M410.58 104.46C410.58 104.46 401.071 109.503 401.22 111.002C401.37 112.501 404.34 122.587 406.123 123.268C407.906 123.949 415.482 119.724 415.482 119.724L410.58 104.46Z" fill="#2C6CD3" stroke="#263238" stroke-miterlimit="10"/>
<path d="M436.121 18.1018C436.121 18.1018 439.082 13.5273 441.887 11.955C444.692 10.3826 451.393 13.2412 454.353 16.2433C457.314 19.2454 462.145 29.8241 463.547 37.6868C464.949 45.5495 461.209 52.5547 459.807 53.6984C458.405 54.842 454.197 56.2717 455.6 59.9887C457.002 63.7057 458.872 61.7045 458.872 61.7045C458.872 61.7045 458.717 65.7076 456.379 67.5661C454.041 69.4246 449.522 71.1396 444.38 68.281C439.237 65.4215 434.251 59.8469 433.94 55.9864C433.629 52.126 434.252 49.1247 434.563 48.4099C434.875 47.695 441.732 41.8334 442.199 36.1153C442.666 30.3972 438.771 23.2494 436.589 21.8196C434.407 20.3891 436.121 18.1018 436.121 18.1018Z" fill="#263238" stroke="#263238" stroke-miterlimit="10"/>
<path d="M452.483 139.044C449.211 128.608 448.276 126.606 448.276 126.606L413.682 125.892C413.682 125.892 412.747 138.186 413.682 146.478C414.617 154.769 415.241 161.202 415.241 161.202C415.241 161.202 414.461 179.357 416.955 193.796C419.448 208.234 421.941 217.812 422.253 219.527C422.431 220.512 423.381 232.845 424.156 243.176L421.756 243.11L423.722 257.536L419.915 265.559C417.577 267.418 408.228 271.992 407.449 273.279C406.67 274.566 409.787 275.138 411.344 275.138C412.902 275.138 439.082 275.138 439.082 275.138C439.082 275.138 441.195 274.568 441.414 272.765C441.632 270.962 440.322 261.143 440.322 261.143L443.598 243.711L441.302 243.648C442.657 234.784 444.069 223.776 443.446 220.1C442.355 213.667 440.485 206.376 440.485 204.66C440.485 202.945 443.446 176.355 445.004 170.637C446.563 164.919 451.861 156.341 451.861 156.341C451.861 156.341 455.756 149.479 452.483 139.044Z" fill="#263238" stroke="#263238" stroke-miterlimit="10"/>
<path d="M408.589 29.2392C408.589 29.2392 404.301 25.9839 404.301 23.2712C404.301 20.5586 416.277 15.2684 417.756 14.3189C419.234 13.3694 429.436 13.9121 433.428 15.8111C437.42 17.7101 444.221 23.1354 445.405 26.5265C446.588 29.9177 446.588 36.8352 445.848 41.1759C445.109 45.5166 436.829 51.2135 436.829 51.2135L439.638 60.8436C439.638 60.8436 444.961 63.828 448.51 70.3386C452.058 76.8492 451.023 108.86 451.023 108.86C451.023 108.86 450.875 119.305 451.023 120.932C451.171 122.559 451.318 123.374 450.431 125.951C449.545 128.527 448.953 128.527 447.031 128.392C445.109 128.256 417.164 128.935 417.164 128.935C417.164 128.935 414.355 128.799 412.581 127.443C410.806 126.086 411.398 111.708 411.25 111.301C411.102 110.894 407.702 100.314 407.11 97.0588C406.519 93.8035 407.554 90.1414 409.032 87.6997C410.511 85.258 424.025 62.719 424.025 62.719L420.227 55.2707C420.227 55.2707 413.573 57.1697 412.243 57.1697C410.913 57.1697 407.85 46.3293 407.85 46.3293C407.85 46.3293 404.302 43.4808 404.005 42.8031C403.71 42.1245 408.441 38.1915 408.441 38.1915C408.441 38.1915 408.145 34.2576 408.589 32.7662C408.705 32.3763 409.274 31.4969 410.053 30.409L408.589 29.2392Z" fill="white" stroke="#263238" stroke-miterlimit="10"/>
<path d="M408.589 29.2392L410.053 30.409L414.651 26.1197C414.651 26.1197 414.207 30.8672 416.721 34.2584C419.234 37.6496 424.557 39.5486 425.149 39.9554C425.74 40.3622 426.332 41.3117 425.888 44.0244C425.518 46.2863 423.713 47.224 422.865 47.2391C423.812 47.6215 426.158 48.5583 427.366 47.5506C428.993 46.1943 428.844 43.4817 428.696 41.9895C428.548 40.4973 428.845 39.4119 431.062 38.4624C433.28 37.5129 437.124 37.242 437.124 40.0905C437.124 42.939 435.645 45.7875 434.315 46.3302C432.984 46.8729 431.21 47.0087 431.21 47.0087C431.21 47.0087 432.984 50.8067 436.828 51.2135C436.828 51.2135 445.108 45.5166 445.847 41.1759C446.586 36.8352 446.586 29.9177 445.404 26.5265C444.22 23.1354 437.42 17.7101 433.427 15.8111C429.435 13.9121 419.233 13.3694 417.755 14.3189C416.276 15.2684 404.3 20.5586 404.3 23.2712C404.301 25.9839 408.589 29.2392 408.589 29.2392Z" fill="#263238" stroke="#263238" stroke-miterlimit="10"/>
<path d="M422.487 47.143C422.561 47.2106 422.696 47.241 422.865 47.2384C422.536 47.1059 422.373 47.0384 422.487 47.143Z" stroke="#263238" stroke-miterlimit="10"/>
<path d="M412.865 39.4136C412.865 40.3133 412.437 41.0425 411.91 41.0425C411.383 41.0425 410.954 40.3133 410.954 39.4136C410.954 38.5139 411.382 37.7847 411.91 37.7847C412.438 37.7847 412.865 38.5139 412.865 39.4136Z" fill="#263238"/>
<path d="M409.771 36.0208C409.771 36.0208 412.137 33.715 414.207 36.2926" stroke="#263238" stroke-miterlimit="10"/>
<path d="M410.067 49.1779C410.067 49.1779 413.321 49.5847 415.981 46.8721" stroke="#263238" stroke-miterlimit="10"/>
<path d="M448.509 70.3377C444.96 63.8271 439.637 60.8427 439.637 60.8427C439.637 60.8427 435.342 60.5599 432.069 64.1334C428.797 67.7069 419.291 81.1451 419.291 81.1451L413.46 80.0133C411.366 83.6813 409.562 86.8235 409.032 87.6988C407.553 90.1404 406.518 93.8026 407.11 97.0579C407.701 100.313 411.102 110.894 411.25 111.3C411.398 111.707 410.806 126.085 412.58 127.441C414.354 128.797 417.163 128.933 417.163 128.933C417.163 128.933 445.108 128.256 447.03 128.391C448.952 128.526 449.544 128.526 450.431 125.949C451.318 123.372 451.169 122.558 451.022 120.93C450.874 119.303 451.022 108.859 451.022 108.859C451.022 108.859 452.057 76.8483 448.509 70.3377Z" fill="#2C6CD3" stroke="#263238" stroke-miterlimit="10"/>
<path d="M431.135 124.604L423.966 158.343C423.966 158.343 419.292 163.06 418.512 164.204C417.733 165.348 418.045 170.637 418.045 172.067C418.045 173.497 418.824 176.07 419.447 176.641C420.071 177.214 421.006 178.357 422.408 178.214C423.81 178.071 424.745 177.785 424.434 176.641C424.122 175.498 424.434 171.924 424.589 171.352C424.744 170.78 427.55 169.065 428.796 166.063C430.043 163.061 430.355 157.771 430.355 157.771L445.314 126.464L431.135 124.604Z" fill="white" stroke="#263238" stroke-miterlimit="10"/>
<path d="M445.314 126.463L431.134 124.604L430.129 129.338C431.421 130.283 435.871 133.198 441.94 133.527L445.314 126.463Z" fill="#2C6CD3" stroke="#263238" stroke-miterlimit="10"/>
<path d="M423.811 178.214C423.811 178.214 422.252 176.927 421.94 175.64C421.628 174.354 421.94 170.494 421.94 170.494" fill="white"/>
<path d="M423.811 178.214C423.811 178.214 422.252 176.927 421.94 175.64C421.628 174.354 421.94 170.494 421.94 170.494" stroke="#263238" stroke-miterlimit="10"/>
<path d="M420.851 177.784C420.851 177.784 420.071 175.783 419.916 174.353C419.76 172.924 419.916 168.778 419.916 168.778" fill="white"/>
<path d="M420.851 177.784C420.851 177.784 420.071 175.783 419.916 174.353C419.76 172.924 419.916 168.778 419.916 168.778" stroke="#263238" stroke-miterlimit="10"/>
<path d="M431.447 76.7142C431.447 76.7142 429.109 82.8611 428.954 88.4366C428.798 94.012 428.33 120.601 428.33 122.746C428.33 124.891 431.447 127.034 435.187 128.035C438.927 129.036 443.29 129.036 445.004 127.893C446.718 126.749 446.406 127.035 446.875 121.888C447.342 116.742 447.342 111.167 447.342 111.167C447.342 111.167 451.473 84.8065 449.991 77.5726C448.51 70.3387 444.693 64.564 439.239 64.4205C433.786 64.2779 432.539 65.9929 432.539 65.9929" fill="#2C6CD3"/>
<path d="M431.447 76.7142C431.447 76.7142 429.109 82.8611 428.954 88.4366C428.798 94.012 428.33 120.601 428.33 122.746C428.33 124.891 431.447 127.034 435.187 128.035C438.927 129.036 443.29 129.036 445.004 127.893C446.718 126.749 446.406 127.035 446.875 121.888C447.342 116.742 447.342 111.167 447.342 111.167C447.342 111.167 451.473 84.8065 449.991 77.5726C448.51 70.3387 444.693 64.564 439.239 64.4205C433.786 64.2779 432.539 65.9929 432.539 65.9929" stroke="#263238" stroke-miterlimit="10"/>
<path d="M350.829 122.682C350.829 122.682 349.443 124.999 349.688 125.448C349.933 125.897 350.748 126.421 351.318 125.972C351.889 125.523 352.786 124.177 352.704 123.13C352.622 122.083 351.97 121.485 350.829 122.682Z" fill="white" stroke="#263238" stroke-miterlimit="10"/>
<path d="M353.518 123.279C353.518 123.279 352.133 125.597 352.378 126.046C352.622 126.494 353.437 127.018 354.008 126.569C354.578 126.12 355.475 124.775 355.393 123.727C355.311 122.682 354.66 122.083 353.518 123.279Z" fill="white" stroke="#263238" stroke-miterlimit="10"/>
<path d="M355.556 123.878C355.556 123.878 354.17 126.195 354.415 126.644C354.659 127.093 355.475 127.617 356.045 127.168C356.615 126.719 357.512 125.373 357.43 124.326C357.349 123.279 356.696 122.682 355.556 123.878Z" fill="white" stroke="#263238" stroke-miterlimit="10"/>
<path d="M357.981 124.36C357.981 124.36 356.908 126.155 357.098 126.502C357.287 126.848 357.917 127.254 358.36 126.907C358.801 126.56 359.495 125.517 359.433 124.707C359.369 123.898 358.864 123.434 357.981 124.36Z" fill="white" stroke="#263238" stroke-miterlimit="10"/>
<path d="M369.996 114.154C369.996 114.154 358.865 109.049 358.07 110.07C357.275 111.091 354.731 114.738 354.254 116.05C353.777 117.364 353.936 117.801 355.526 117.218C357.116 116.635 359.661 114.592 359.661 114.592C359.661 114.592 363.477 119.26 366.18 118.531" fill="white"/>
<path d="M369.996 114.154C369.996 114.154 358.865 109.049 358.07 110.07C357.275 111.091 354.731 114.738 354.254 116.05C353.777 117.364 353.936 117.801 355.526 117.218C357.116 116.635 359.661 114.592 359.661 114.592C359.661 114.592 363.477 119.26 366.18 118.531" stroke="#263238" stroke-miterlimit="10"/>
</g>
</svg>
