<svg width="17" height="17" viewBox="0 0 17 17" fill="none" xmlns="http://www.w3.org/2000/svg">
<path d="M7 10.5H9.48075C9.62308 10.5 9.742 10.4522 9.8375 10.3567C9.933 10.2612 9.98075 10.1423 9.98075 10C9.98075 9.85767 9.933 9.73875 9.8375 9.64325C9.742 9.54775 9.62308 9.5 9.48075 9.5H7C6.85767 9.5 6.73875 9.54775 6.64325 9.64325C6.54775 9.73875 6.5 9.85767 6.5 10C6.5 10.1423 6.54775 10.2612 6.64325 10.3567C6.73875 10.4522 6.85767 10.5 7 10.5ZM7 7.5H12.9615C13.1038 7.5 13.2227 7.45225 13.3182 7.35675C13.4137 7.26125 13.4615 7.14233 13.4615 7C13.4615 6.85767 13.4137 6.73875 13.3182 6.64325C13.2227 6.54775 13.1038 6.5 12.9615 6.5H7C6.85767 6.5 6.73875 6.54775 6.64325 6.64325C6.54775 6.73875 6.5 6.85767 6.5 7C6.5 7.14233 6.54775 7.26125 6.64325 7.35675C6.73875 7.45225 6.85767 7.5 7 7.5ZM7 4.5H12.9615C13.1038 4.5 13.2227 4.45225 13.3182 4.35675C13.4137 4.26125 13.4615 4.14233 13.4615 4C13.4615 3.85767 13.4137 3.73875 13.3182 3.64325C13.2227 3.54775 13.1038 3.5 12.9615 3.5H7C6.85767 3.5 6.73875 3.54775 6.64325 3.64325C6.54775 3.73875 6.5 3.85767 6.5 4C6.5 4.14233 6.54775 4.26125 6.64325 4.35675C6.73875 4.45225 6.85767 4.5 7 4.5ZM4.6155 14C4.15517 14 3.77083 13.8458 3.4625 13.5375C3.15417 13.2292 3 12.8448 3 12.3845V1.6155C3 1.15517 3.15417 0.770833 3.4625 0.4625C3.77083 0.154167 4.15517 0 4.6155 0H15.3845C15.8448 0 16.2292 0.154167 16.5375 0.4625C16.8458 0.770833 17 1.15517 17 1.6155V12.3845C17 12.8448 16.8458 13.2292 16.5375 13.5375C16.2292 13.8458 15.8448 14 15.3845 14H4.6155ZM4.6155 13H15.3845C15.5385 13 15.6796 12.9359 15.8077 12.8077C15.9359 12.6796 16 12.5385 16 12.3845V1.6155C16 1.4615 15.9359 1.32042 15.8077 1.19225C15.6796 1.06408 15.5385 1 15.3845 1H4.6155C4.4615 1 4.32042 1.06408 4.19225 1.19225C4.06408 1.32042 4 1.4615 4 1.6155V12.3845C4 12.5385 4.06408 12.6796 4.19225 12.8077C4.32042 12.9359 4.4615 13 4.6155 13ZM1.6155 17C1.15517 17 0.770833 16.8458 0.4625 16.5375C0.154167 16.2292 0 15.8449 0 15.3848V4.1155C0 3.97317 0.0477499 3.85425 0.14325 3.75875C0.23875 3.66325 0.357667 3.6155 0.5 3.6155C0.642333 3.6155 0.76125 3.66325 0.85675 3.75875C0.95225 3.85425 1 3.97317 1 4.1155V15.3848C1 15.5386 1.06408 15.6796 1.19225 15.8077C1.32042 15.9359 1.4615 16 1.6155 16H12.8845C13.0268 16 13.1458 16.0478 13.2413 16.1432C13.3368 16.2388 13.3845 16.3577 13.3845 16.5C13.3845 16.6423 13.3368 16.7613 13.2413 16.8568C13.1458 16.9523 13.0268 17 12.8845 17H1.6155Z" fill="#1C4587"/>
</svg>
