<svg width="50" height="42" viewBox="0 0 50 42" fill="none" xmlns="http://www.w3.org/2000/svg">
<rect x="1" y="0.5" width="48" height="41" rx="9.5" fill="#EAEAEA" fill-opacity="0.15"/>
<rect x="1" y="0.5" width="48" height="41" rx="9.5" stroke="#C5C5C5"/>
<path d="M25 17.334C22.9733 17.334 21.3333 18.974 21.3333 21.0007C21.3333 23.0273 22.9733 24.6673 25 24.6673C27.0267 24.6673 28.6667 23.0273 28.6667 21.0007C28.6667 18.974 27.0267 17.334 25 17.334ZM25 22.6673C24.08 22.6673 23.3333 21.9207 23.3333 21.0007C23.3333 20.0807 24.08 19.334 25 19.334C25.92 19.334 26.6667 20.0807 26.6667 21.0007C26.6667 21.9207 25.92 22.6673 25 22.6673Z" fill="#1C4587"/>
<path d="M34.3333 17.334C32.3067 17.334 30.6667 18.974 30.6667 21.0007C30.6667 23.0273 32.3067 24.6673 34.3333 24.6673C36.36 24.6673 38 23.0273 38 21.0007C38 18.974 36.36 17.334 34.3333 17.334ZM34.3333 22.6673C33.4133 22.6673 32.6667 21.9207 32.6667 21.0007C32.6667 20.0807 33.4133 19.334 34.3333 19.334C35.2533 19.334 36 20.0807 36 21.0007C36 21.9207 35.2533 22.6673 34.3333 22.6673Z" fill="#1C4587"/>
<path d="M15.6667 17.334C13.64 17.334 12 18.974 12 21.0007C12 23.0273 13.64 24.6673 15.6667 24.6673C17.6933 24.6673 19.3333 23.0273 19.3333 21.0007C19.3333 18.974 17.6933 17.334 15.6667 17.334ZM15.6667 22.6673C14.7467 22.6673 14 21.9207 14 21.0007C14 20.0807 14.7467 19.334 15.6667 19.334C16.5867 19.334 17.3333 20.0807 17.3333 21.0007C17.3333 21.9207 16.5867 22.6673 15.6667 22.6673Z" fill="#1C4587"/>
</svg>
