<svg width="18" height="18" viewBox="0 0 18 18" fill="none" xmlns="http://www.w3.org/2000/svg">
<path d="M8.22751 17.0625C5.43751 17.0625 3.16501 14.79 3.16501 12V7.5C3.16501 4.2975 5.77501 1.6875 8.97751 1.6875C12.18 1.6875 14.79 4.2975 14.79 7.5V11.625C14.79 13.38 13.3575 14.8125 11.6025 14.8125C9.84751 14.8125 8.41501 13.38 8.41501 11.625V9C8.41501 8.6925 8.67001 8.4375 8.97751 8.4375C9.28501 8.4375 9.54001 8.6925 9.54001 9V11.625C9.54001 12.765 10.4625 13.6875 11.6025 13.6875C12.7425 13.6875 13.665 12.765 13.665 11.625V7.5C13.665 4.9125 11.565 2.8125 8.97751 2.8125C6.39001 2.8125 4.29001 4.9125 4.29001 7.5V12C4.29001 14.1675 6.05251 15.9375 8.22751 15.9375C8.53501 15.9375 8.79001 16.1925 8.79001 16.5C8.79001 16.8075 8.54251 17.0625 8.22751 17.0625Z" fill="#1C4587"/>
</svg>
